<svg width="240" height="101" viewBox="0 0 240 101" fill="none" xmlns="http://www.w3.org/2000/svg">
<rect width="240" height="101" rx="50.5" fill="#7158E2"/>
<path d="M85.7243 43.7232C87.6283 44.6864 90.0923 45.2688 92.2203 45.2688C95.8715 45.2688 99.5451 43.2752 99.5451 39.2432C99.5451 36.376 97.6635 34.9872 95.0651 34.4048L93.6763 34.0912C93.2059 33.9792 92.4443 33.8896 92.4443 33.2624C92.4443 32.568 93.2283 32.3664 93.7659 32.3664C95.0875 32.3664 96.2747 32.9264 97.3275 33.6432L98.9851 29.32C97.3275 28.312 95.5579 27.8416 93.6315 27.8416C89.9579 27.8416 86.3067 30.0816 86.3067 34.0912C86.3067 36.7344 88.3227 38.1456 90.7195 38.5712L91.9515 38.7952C92.5115 38.9072 93.3179 38.9744 93.3179 39.736C93.3179 40.4976 92.3547 40.744 91.7499 40.744C90.3387 40.744 89.0171 40.0496 87.9195 39.1984L87.6059 38.952L85.7243 43.7232ZM102.257 45H113.793V40.3856H108.44V38.728H113.166V34.3376H108.44V32.7248H113.614V28.1104H102.257V45ZM117.132 45H123V39.512C123 38.392 122.821 37.2944 122.62 36.1296H122.799L128.197 45H134.066V28.1104H128.197V33.1728C128.197 34.6064 128.466 36.0624 128.712 37.4736H128.533L123.023 28.1104H117.132V45ZM137.696 45H145.469C150.42 45 153.959 41.8192 153.959 36.8016C153.959 30.5968 149.613 28.1104 143.946 28.1104H137.696V45ZM143.834 33.3968H144.215C146.455 33.3968 147.821 34.4048 147.821 36.7792C147.821 38.9968 146.253 39.9376 144.215 39.9376H143.834V33.3968ZM75.2405 65.3616C76.1141 65.3616 76.7413 66.168 76.7413 66.9968C76.7413 67.8032 76.1365 68.744 75.2405 68.744C74.2773 68.744 73.7621 67.9376 73.7621 67.0416C73.7621 66.168 74.2773 65.3616 75.2405 65.3616ZM73.7621 61.1056H68.2517V77.9056H74.0309V73.2688L73.7621 71.3648H73.9189C74.5685 72.5296 76.1365 73.2688 77.4357 73.2688C80.6837 73.2688 82.4309 69.752 82.4309 66.952C82.4309 63.9728 80.8181 60.8368 77.4805 60.8368C75.9797 60.8368 74.4117 61.6208 73.7621 62.9872H73.5829L73.7621 61.1056ZM85.1373 61.1056V67.8256C85.1373 71.5888 88.4077 73.2688 91.8573 73.2688C95.3069 73.2688 98.5773 71.5888 98.5773 67.8256V61.1056H92.8429V67.2432C92.8429 67.9376 92.7981 68.6768 91.8573 68.6768C90.9165 68.6768 90.8717 67.9376 90.8717 67.2432V61.1056H85.1373ZM108.73 65.3616C109.604 65.3616 110.231 66.168 110.231 66.9968C110.231 67.8032 109.626 68.744 108.73 68.744C107.767 68.744 107.252 67.9376 107.252 67.0416C107.252 66.168 107.767 65.3616 108.73 65.3616ZM101.674 73H107.095L106.983 71.2304H107.118C108.081 72.44 109.447 73.2688 110.993 73.2688C114.218 73.2688 115.921 69.9984 115.921 67.1536C115.921 64.1968 114.33 60.8368 110.97 60.8368C109.626 60.8368 108.193 61.5984 107.386 62.696H107.185L107.454 59.8512V54.8336H101.674V73ZM118.849 73H124.628V54.8336H118.849V73ZM128.325 73H134.105V61.1056H128.325V73ZM131.215 54.6544C129.401 54.6544 128.034 55.7072 128.034 57.432C128.034 59.3808 129.557 60.232 131.215 60.232C132.873 60.232 134.396 59.3808 134.396 57.432C134.396 55.7072 133.029 54.6544 131.215 54.6544ZM146.931 61.4416C145.766 61.0608 144.512 60.8368 143.302 60.8368C139.74 60.8368 137.164 63.592 137.164 67.1088C137.164 71.096 139.92 73.2688 143.772 73.2688C144.78 73.2688 145.788 73 146.684 72.7088L146.931 67.8256C146.259 68.296 145.587 68.744 144.691 68.744C143.75 68.744 142.988 67.9824 142.988 67.0416C142.988 65.9664 143.75 65.272 144.803 65.272C145.632 65.272 146.326 65.7424 146.931 66.2576V61.4416ZM150.171 73H155.951V54.8336H150.171V73ZM157.654 61.1056L162.739 71.8128L159.67 77.9056H165.763L173.379 61.1056H167.309L165.987 65.7648L165.696 67.5792H165.539L165.203 65.7648L163.881 61.1056H157.654Z" fill="white"/>
</svg>
