<svg width="28" height="28" viewBox="0 0 28 28" fill="none" xmlns="http://www.w3.org/2000/svg">
<path d="M3.5 4.66669V1.16669H5.83333V4.66669H9.33333V7.00002H5.83333V10.5H3.5V7.00002H0V4.66669H3.5ZM7 11.6667V8.16669H10.5V4.66669H18.6667L20.8017 7.00002H24.5C25.7833 7.00002 26.8333 8.05002 26.8333 9.33335V23.3334C26.8333 24.6167 25.7833 25.6667 24.5 25.6667H5.83333C4.55 25.6667 3.5 24.6167 3.5 23.3334V11.6667H7ZM15.1667 22.1667C18.3867 22.1667 21 19.5534 21 16.3334C21 13.1134 18.3867 10.5 15.1667 10.5C11.9467 10.5 9.33333 13.1134 9.33333 16.3334C9.33333 19.5534 11.9467 22.1667 15.1667 22.1667ZM11.4333 16.3334C11.4333 18.3984 13.1017 20.0667 15.1667 20.0667C17.2317 20.0667 18.9 18.3984 18.9 16.3334C18.9 14.2684 17.2317 12.6 15.1667 12.6C13.1017 12.6 11.4333 14.2684 11.4333 16.3334Z" fill="#7158E2"/>
</svg>
