<svg width="300" height="100" viewBox="0 0 300 100" fill="none" xmlns="http://www.w3.org/2000/svg">
<rect width="300" height="100" rx="50" fill="#CDCDCD"/>
<path d="M107.087 32.648C107.871 31.544 108.191 30.328 108.191 29C108.191 25.064 105.359 22.744 101.535 22.744C97.8871 22.744 94.8791 25.144 94.8791 29C94.8791 32.696 97.6471 35.192 101.295 35.192C102.399 35.192 103.551 35.032 104.575 34.584L105.423 36.056L108.863 34.616L107.087 32.648ZM101.935 31.272C101.775 31.32 101.615 31.32 101.439 31.32C100.143 31.32 99.2951 30.184 99.2951 28.92C99.2951 27.608 100.111 26.616 101.535 26.616C102.831 26.616 103.775 27.624 103.775 28.968C103.775 29.192 103.743 29.368 103.647 29.64L100.927 30.152L101.935 31.272ZM110.348 26.504V31.304C110.348 33.992 112.684 35.192 115.148 35.192C117.612 35.192 119.948 33.992 119.948 31.304V26.504H115.852V30.888C115.852 31.384 115.82 31.912 115.148 31.912C114.476 31.912 114.444 31.384 114.444 30.888V26.504H110.348ZM122.433 35H126.561V26.504H122.433V35ZM124.497 21.896C123.201 21.896 122.225 22.648 122.225 23.88C122.225 25.272 123.313 25.88 124.497 25.88C125.681 25.88 126.769 25.272 126.769 23.88C126.769 22.648 125.793 21.896 124.497 21.896ZM135.722 26.744C134.89 26.472 133.994 26.312 133.13 26.312C130.586 26.312 128.746 28.28 128.746 30.792C128.746 33.64 130.714 35.192 133.466 35.192C134.186 35.192 134.906 35 135.546 34.792L135.722 31.304C135.242 31.64 134.762 31.96 134.122 31.96C133.45 31.96 132.906 31.416 132.906 30.744C132.906 29.976 133.45 29.48 134.202 29.48C134.794 29.48 135.29 29.816 135.722 30.184V26.744ZM137.957 35H142.085V31.88H142.181L143.909 35H148.773L145.493 30.664L148.613 26.504H143.797L142.517 28.936L142.181 29.656H142.085V22.024H137.957V35ZM46.8392 55H55.0792V51.704H51.2552V50.52H54.6312V47.384H51.2552V46.232H54.9512V42.936H46.8392V55ZM61.3356 46.504H57.4316V55H61.4316V50.792C61.4316 50.296 61.4316 49.656 62.0236 49.656C62.6316 49.656 62.6316 50.296 62.6316 50.792V55H66.6316V50.792C66.6316 50.296 66.6316 49.656 67.2236 49.656C67.8316 49.656 67.8316 50.296 67.8316 50.792V55H71.8316V49.72C71.8316 47.88 70.9356 46.312 68.9036 46.312C67.5916 46.312 66.8076 46.936 66.3276 48.12H66.2316C65.8636 46.968 65.0156 46.312 63.7996 46.312C62.7116 46.312 61.6716 46.968 61.3356 48.008H61.2076L61.3356 46.504ZM83.9715 51.448C84.1795 48.264 81.7955 46.312 78.7715 46.312C76.0675 46.312 73.8915 48.072 73.8915 50.888C73.8915 53.816 76.3395 55.192 79.0115 55.192C80.9635 55.192 83.2515 54.248 83.7955 52.2H79.7795C79.6995 52.6 79.3795 52.904 78.9475 52.904C78.0835 52.904 77.9715 52.136 77.9715 51.448H83.9715ZM77.9715 49.688C77.9715 49.096 78.2755 48.584 78.8995 48.584C79.4915 48.584 79.9075 49.112 79.9075 49.688H77.9715ZM92.9514 46.312C91.5594 46.28 90.8074 46.52 90.0714 47.64H89.9754L90.0714 46.504H85.9434V55H90.0714V51.736C90.0714 50.68 90.6154 50.04 91.6874 50.04C92.2154 50.04 92.5194 50.248 92.9514 50.504V46.312ZM98.3292 50.76C98.3292 50.088 98.7932 49.544 99.4652 49.544C100.153 49.544 100.537 50.136 100.537 50.776C100.537 51.416 100.201 51.96 99.4972 51.96C98.7772 51.96 98.3292 51.448 98.3292 50.76ZM104.393 46.504H100.393L100.505 47.72H100.393C99.8332 46.824 99.0012 46.312 97.9132 46.312C95.5612 46.312 94.2492 48.632 94.2492 50.744C94.2492 52.856 95.5772 55.192 97.8972 55.192C98.8732 55.192 99.9772 54.712 100.393 53.784H100.505L100.425 54.648C100.329 55.704 99.6572 56.52 98.5372 56.52C97.5292 56.52 96.3452 56.152 95.5612 55.48L94.6492 58.344L95.0652 58.488C96.2812 58.936 97.4012 59.16 98.7132 59.16C101.673 59.16 104.393 57.816 104.393 54.504V46.504ZM116.532 51.448C116.74 48.264 114.356 46.312 111.332 46.312C108.628 46.312 106.452 48.072 106.452 50.888C106.452 53.816 108.9 55.192 111.572 55.192C113.524 55.192 115.812 54.248 116.356 52.2H112.34C112.26 52.6 111.94 52.904 111.508 52.904C110.644 52.904 110.532 52.136 110.532 51.448H116.532ZM110.532 49.688C110.532 49.096 110.836 48.584 111.46 48.584C112.052 48.584 112.468 49.112 112.468 49.688H110.532ZM122.552 46.504H118.52V55H122.648V50.856C122.648 50.36 122.648 49.656 123.336 49.656C124.04 49.656 124.04 50.36 124.04 50.856V55H128.168V49.768C128.168 47.896 127.336 46.312 125.224 46.312C123.896 46.312 123.288 46.936 122.488 47.864H122.392L122.552 46.504ZM137.066 46.744C136.234 46.472 135.338 46.312 134.474 46.312C131.93 46.312 130.09 48.28 130.09 50.792C130.09 53.64 132.058 55.192 134.81 55.192C135.53 55.192 136.25 55 136.89 54.792L137.066 51.304C136.586 51.64 136.106 51.96 135.466 51.96C134.794 51.96 134.25 51.416 134.25 50.744C134.25 49.976 134.794 49.48 135.546 49.48C136.138 49.48 136.634 49.816 137.066 50.184V46.744ZM138.117 46.504L141.749 54.152L139.557 58.504H143.909L149.349 46.504H145.013L144.069 49.832L143.861 51.128H143.749L143.509 49.832L142.565 46.504H138.117ZM109.412 66.856L111.828 66.744V75H116.212V66.744L118.628 66.856V62.936H109.412V66.856ZM128.453 71.448C128.661 68.264 126.277 66.312 123.253 66.312C120.549 66.312 118.373 68.072 118.373 70.888C118.373 73.816 120.821 75.192 123.493 75.192C125.445 75.192 127.733 74.248 128.277 72.2H124.261C124.181 72.6 123.861 72.904 123.429 72.904C122.565 72.904 122.453 72.136 122.453 71.448H128.453ZM122.453 69.688C122.453 69.096 122.757 68.584 123.381 68.584C123.973 68.584 124.389 69.112 124.389 69.688H122.453ZM129.993 66.504L133.209 70.584L129.641 75H134.617L135.273 73.8L135.529 73.128H135.609L135.897 73.8L136.569 75H141.417L137.961 70.584L141.177 66.504H136.441L135.929 67.56L135.609 68.28H135.529L135.257 67.56L134.729 66.504H129.993ZM147.582 63.768H143.422V66.616L142.414 66.552V69.8L143.422 69.72V75H147.582V69.72L148.958 69.8V66.552L147.582 66.616V63.768Z" fill="#011638"/>
<path d="M250 89C228.495 89 211 71.5053 211 50C211 28.4947 228.495 11 250 11C271.505 11 289 28.4947 289 50C289 71.5053 271.505 89 250 89ZM250 17.5C232.08 17.5 217.5 32.0795 217.5 50C217.5 67.9205 232.08 82.5 250 82.5C267.92 82.5 282.5 67.9205 282.5 50C282.5 32.0795 267.92 17.5 250 17.5Z" fill="white"/>
<path d="M224.728 78.522C223.896 78.522 223.064 78.2035 222.43 77.5697C221.16 76.299 221.16 74.245 222.43 72.9742L272.974 22.4302C274.245 21.1595 276.299 21.1595 277.57 22.4302C278.841 23.701 278.841 25.7582 277.57 27.0257L227.026 77.5697C226.389 78.2067 225.557 78.522 224.728 78.522V78.522Z" fill="white"/>
<path d="M253.815 55.3788L243.253 65.9413C244.589 68.3105 247.098 69.9355 250 69.9355C254.287 69.9355 257.78 66.4353 257.78 62.1355C257.78 59.23 256.168 56.721 253.815 55.3788Z" fill="white"/>
<path d="M236.298 54.4167C236.639 54.0755 237 53.7602 237.361 53.4482L248.537 42.2715C242.18 42.629 236.239 45.2615 231.693 49.831C230.425 51.105 230.432 53.1622 231.706 54.4297C232.973 55.694 235.037 55.6875 236.298 54.4167V54.4167Z" fill="white"/>
<path d="M263.279 45.9148L258.499 50.6955C260.397 51.6315 262.158 52.8698 263.702 54.4168C264.336 55.0538 265.171 55.3723 266.006 55.3723C266.835 55.3723 267.667 55.057 268.297 54.4265C269.571 53.159 269.578 51.1018 268.31 49.8278C266.783 48.2938 265.083 47.0035 263.279 45.9148V45.9148Z" fill="white"/>
<path d="M272.019 37.1755L267.371 41.823C269.107 42.9833 270.741 44.3223 272.246 45.8335C272.88 46.4705 273.715 46.789 274.55 46.789C275.379 46.789 276.211 46.4738 276.842 45.84C278.116 44.5725 278.122 42.5185 276.855 41.2445C275.35 39.7333 273.718 38.3975 272.019 37.1755Z" fill="white"/>
<path d="M227.75 45.8335C233.698 39.8568 241.599 36.5677 250 36.5677C251.339 36.5677 252.658 36.6815 253.965 36.8472L259.5 31.3125C256.428 30.5195 253.253 30.0677 250 30.0677C239.86 30.0677 230.321 34.0393 223.142 41.2478C221.874 42.5218 221.881 44.5757 223.155 45.8433C224.426 47.1108 226.489 47.1043 227.75 45.8335V45.8335Z" fill="white"/>
</svg>
