<svg width="300" height="100" viewBox="0 0 300 100" fill="none" xmlns="http://www.w3.org/2000/svg">
<rect width="300" height="100" rx="50" fill="#CDCDCD"/>
<path d="M84.643 33.936L88.867 46H92.595L93.811 41.264C93.955 40.672 93.987 40.064 94.035 39.44H94.179L95.555 46H99.379L103.635 33.936H99.075L97.859 39.008C97.699 39.696 97.619 40.432 97.555 41.136H97.459L95.811 33.936H92.451L91.171 38.912C90.979 39.632 90.883 40.4 90.803 41.136H90.707L89.187 33.936H84.643ZM107.251 41.712C107.251 41.088 107.667 40.544 108.323 40.544C108.979 40.544 109.427 41.024 109.427 41.68C109.427 42.336 109.107 42.96 108.323 42.96C107.571 42.96 107.251 42.384 107.251 41.712ZM109.299 46H113.347V37.504H109.299L109.427 38.512H109.331C108.723 37.68 107.875 37.312 106.851 37.312C104.451 37.312 103.155 39.648 103.155 41.792C103.155 43.856 104.435 46.192 106.739 46.192C107.907 46.192 108.579 45.68 109.331 44.88H109.427L109.299 46ZM115.711 46H119.839V33.024H115.711V46ZM122.24 46H126.368V42.88H126.464L128.192 46H133.056L129.776 41.664L132.896 37.504H128.08L126.8 39.936L126.464 40.656H126.368V33.024H122.24V46ZM134.995 46H139.123V37.504H134.995V46ZM137.059 32.896C135.763 32.896 134.787 33.648 134.787 34.88C134.787 36.272 135.875 36.88 137.059 36.88C138.243 36.88 139.331 36.272 139.331 34.88C139.331 33.648 138.355 32.896 137.059 32.896ZM151.452 42.448C151.66 39.264 149.276 37.312 146.252 37.312C143.548 37.312 141.372 39.072 141.372 41.888C141.372 44.816 143.82 46.192 146.492 46.192C148.444 46.192 150.732 45.248 151.276 43.2H147.26C147.18 43.6 146.86 43.904 146.428 43.904C145.564 43.904 145.452 43.136 145.452 42.448H151.452ZM145.452 40.688C145.452 40.096 145.756 39.584 146.38 39.584C146.972 39.584 147.388 40.112 147.388 40.688H145.452ZM94.2256 57.856L96.6416 57.744V66H101.026V57.744L103.442 57.856V53.936H94.2256V57.856ZM107.251 61.712C107.251 61.088 107.667 60.544 108.323 60.544C108.979 60.544 109.427 61.024 109.427 61.68C109.427 62.336 109.107 62.96 108.323 62.96C107.571 62.96 107.251 62.384 107.251 61.712ZM109.299 66H113.347V57.504H109.299L109.427 58.512H109.331C108.723 57.68 107.875 57.312 106.851 57.312C104.451 57.312 103.155 59.648 103.155 61.792C103.155 63.856 104.435 66.192 106.739 66.192C107.907 66.192 108.579 65.68 109.331 64.88H109.427L109.299 66ZM115.711 66H119.839V53.024H115.711V66ZM122.24 66H126.368V62.88H126.464L128.192 66H133.056L129.776 61.664L132.896 57.504H128.08L126.8 59.936L126.464 60.656H126.368V53.024H122.24V66ZM134.995 66H139.123V57.504H134.995V66ZM137.059 52.896C135.763 52.896 134.787 53.648 134.787 54.88C134.787 56.272 135.875 56.88 137.059 56.88C138.243 56.88 139.331 56.272 139.331 54.88C139.331 53.648 138.355 52.896 137.059 52.896ZM151.452 62.448C151.66 59.264 149.276 57.312 146.252 57.312C143.548 57.312 141.372 59.072 141.372 61.888C141.372 64.816 143.82 66.192 146.492 66.192C148.444 66.192 150.732 65.248 151.276 63.2H147.26C147.18 63.6 146.86 63.904 146.428 63.904C145.564 63.904 145.452 63.136 145.452 62.448H151.452ZM145.452 60.688C145.452 60.096 145.756 59.584 146.38 59.584C146.972 59.584 147.388 60.112 147.388 60.688H145.452Z" fill="#011638"/>
<path d="M236.223 43.71H258.176V46.1492H236.223V43.71Z" fill="white"/>
<path d="M236.223 48.5886H258.176V51.0279H236.223V48.5886Z" fill="white"/>
<path d="M238.662 65.6634H255.737V53.4672H238.662V65.6634ZM241.101 55.9064H253.298V63.2241H241.101V55.9064Z" fill="white"/>
<path d="M248.419 80.2987H250.858V82.7379H248.419V80.2987Z" fill="white"/>
<path d="M243.541 80.2987H245.98V82.7379H243.541V80.2987Z" fill="white"/>
<path d="M253.297 80.2987H255.737V82.7379H253.297V80.2987Z" fill="white"/>
<path d="M238.662 80.2987H241.101V82.7379H238.662V80.2987Z" fill="white"/>
<path d="M243.541 75.4203H245.98V77.8595H243.541V75.4203Z" fill="white"/>
<path d="M238.662 75.4203H241.101V77.8595H238.662V75.4203Z" fill="white"/>
<path d="M248.419 75.4203H250.858V77.8595H248.419V75.4203Z" fill="white"/>
<path d="M253.297 75.4203H255.737V77.8595H253.297V75.4203Z" fill="white"/>
<path d="M238.662 70.5419H241.101V72.9811H238.662V70.5419Z" fill="white"/>
<path d="M248.419 70.5419H250.858V72.9811H248.419V70.5419Z" fill="white"/>
<path d="M253.297 70.5419H255.737V72.9811H253.297V70.5419Z" fill="white"/>
<path d="M243.541 70.5419H245.98V72.9811H243.541V70.5419Z" fill="white"/>
<path d="M264.274 43.7101H263.055V42.4905C263.055 40.9026 262.031 39.561 260.615 39.0561V37.612C260.615 36.0241 259.592 34.6825 258.176 34.1776V15.6589C258.176 13.6416 256.534 12 254.517 12C252.5 12 250.858 13.6416 250.858 15.6589V34.1776C249.442 34.6825 248.419 36.0241 248.419 37.612V38.8317H243.541V35.1728C243.541 33.1555 241.899 31.5139 239.882 31.5139H237.442C235.425 31.5139 233.784 33.1555 233.784 35.1728V39.0561C232.368 39.561 231.344 40.9026 231.344 42.4905V43.7101H230.125C228.107 43.7101 226.466 45.3517 226.466 47.369V52.2475C226.466 54.2647 228.107 55.9063 230.125 55.9063H231.344V58.5554C231.344 59.5323 231.725 60.4519 232.416 61.1422L233.426 62.152C233.654 62.3801 233.784 62.6935 233.784 63.0143V83.9576C233.784 85.9749 235.425 87.6165 237.442 87.6165H256.956C258.974 87.6165 260.615 85.9749 260.615 83.9576V63.0143C260.615 62.6935 260.745 62.3789 260.973 62.152L261.982 61.1422C262.673 60.4519 263.055 59.5323 263.055 58.5554V55.9063H264.274C266.291 55.9063 267.933 54.2647 267.933 52.2475V47.369C267.933 45.3517 266.291 43.7101 264.274 43.7101ZM230.125 53.4671C229.452 53.4671 228.905 52.9207 228.905 52.2475V47.369C228.905 46.6958 229.452 46.1494 230.125 46.1494H231.344V53.4671H230.125ZM254.517 14.4392C255.19 14.4392 255.737 14.9856 255.737 15.6589V33.9532H253.298V15.6589C253.298 14.9856 253.844 14.4392 254.517 14.4392ZM250.858 37.612C250.858 36.9388 251.405 36.3924 252.078 36.3924H256.956C257.63 36.3924 258.176 36.9388 258.176 37.612V38.8317H250.858V37.612ZM237.442 33.9532H239.882C240.555 33.9532 241.101 34.4996 241.101 35.1728V38.8317H236.223V35.1728C236.223 34.4996 236.769 33.9532 237.442 33.9532ZM260.615 58.5554C260.615 58.8761 260.486 59.1908 260.258 59.4176L259.248 60.4275C258.557 61.1178 258.176 62.0374 258.176 63.0143V83.9576C258.176 84.6308 257.63 85.1772 256.956 85.1772H237.442C236.769 85.1772 236.223 84.6308 236.223 83.9576V63.0143C236.223 62.0374 235.841 61.1178 235.151 60.4275L234.141 59.4176C233.913 59.1896 233.784 58.8761 233.784 58.5554V42.4905C233.784 41.8173 234.33 41.2709 235.003 41.2709H259.396C260.069 41.2709 260.615 41.8173 260.615 42.4905V58.5554ZM265.494 52.2475C265.494 52.9207 264.947 53.4671 264.274 53.4671H263.055V46.1494H264.274C264.947 46.1494 265.494 46.6958 265.494 47.369V52.2475Z" fill="white"/>
<path d="M273.464 45.4967L271.739 47.2212C272.43 47.9116 272.811 48.8299 272.811 49.8081C272.811 50.7862 272.43 51.7046 271.739 52.3949L273.464 54.1194C274.615 52.9693 275.251 51.4375 275.251 49.8081C275.251 48.1786 274.615 46.6468 273.464 45.4967Z" fill="white"/>
<path d="M276.914 42.0466L275.19 43.7712C278.518 47.0995 278.518 52.5171 275.19 55.8454L276.914 57.57C281.194 53.2891 281.194 46.3275 276.914 42.0466V42.0466Z" fill="white"/>
<path d="M280.363 38.5974L278.639 40.322C283.87 45.5529 283.87 54.0646 278.639 59.2956L280.363 61.0201C286.546 54.8379 286.546 44.7784 280.363 38.5974V38.5974Z" fill="white"/>
<path d="M229.394 29.529C227.767 29.5043 226.226 30.1156 225.057 31.2508C223.888 32.3859 223.231 33.9089 223.208 35.5361L225.647 35.5719C225.661 34.5949 226.054 33.6821 226.756 33.0007C227.458 32.3192 228.382 31.9524 229.359 31.9676L229.394 29.529Z" fill="white"/>
<path d="M229.134 27.4081L229.17 24.9695C223.117 24.8816 218.122 29.7324 218.032 35.7849L220.472 35.8198C220.541 31.1133 224.427 27.3391 229.134 27.4081V27.4081Z" fill="white"/>
<path d="M228.909 22.8504L228.945 20.4118C220.205 20.2837 212.988 27.2917 212.859 36.0329L215.298 36.0687C215.407 28.6709 221.512 22.742 228.909 22.8504V22.8504Z" fill="white"/>
</svg>
