<svg width="300" height="100" viewBox="0 0 300 100" fill="none" xmlns="http://www.w3.org/2000/svg">
<rect width="300" height="100" rx="50" fill="#CDCDCD"/>
<path d="M94.0264 46H98.2504V42.368H100.49C102.938 42.368 104.474 40.832 104.474 38.368C104.474 35.376 102.394 33.936 99.5784 33.936H94.0264V46ZM98.2504 37.232H98.6664C99.3864 37.232 100.282 37.28 100.282 38.224C100.282 39.2 99.4504 39.328 98.6824 39.328H98.2504V37.232ZM106.099 37.504V42.304C106.099 44.992 108.435 46.192 110.899 46.192C113.363 46.192 115.699 44.992 115.699 42.304V37.504H111.603V41.888C111.603 42.384 111.571 42.912 110.899 42.912C110.227 42.912 110.195 42.384 110.195 41.888V37.504H106.099ZM122.951 40.544C123.575 40.544 124.023 41.12 124.023 41.712C124.023 42.288 123.591 42.96 122.951 42.96C122.263 42.96 121.895 42.384 121.895 41.744C121.895 41.12 122.263 40.544 122.951 40.544ZM117.911 46H121.783L121.703 44.736H121.799C122.487 45.6 123.463 46.192 124.567 46.192C126.871 46.192 128.087 43.856 128.087 41.824C128.087 39.712 126.951 37.312 124.551 37.312C123.591 37.312 122.567 37.856 121.991 38.64H121.847L122.039 36.608V33.024H117.911V46ZM130.179 46H134.307V33.024H130.179V46ZM136.948 46H141.076V37.504H136.948V46ZM139.012 32.896C137.716 32.896 136.74 33.648 136.74 34.88C136.74 36.272 137.828 36.88 139.012 36.88C140.196 36.88 141.284 36.272 141.284 34.88C141.284 33.648 140.308 32.896 139.012 32.896ZM150.237 37.744C149.405 37.472 148.509 37.312 147.645 37.312C145.101 37.312 143.261 39.28 143.261 41.792C143.261 44.64 145.229 46.192 147.981 46.192C148.701 46.192 149.421 46 150.061 45.792L150.237 42.304C149.757 42.64 149.277 42.96 148.637 42.96C147.965 42.96 147.421 42.416 147.421 41.744C147.421 40.976 147.965 40.48 148.717 40.48C149.309 40.48 149.805 40.816 150.237 41.184V37.744ZM48.8392 66H57.0792V62.704H53.2552V61.52H56.6312V58.384H53.2552V57.232H56.9512V53.936H48.8392V66ZM63.3356 57.504H59.4316V66H63.4316V61.792C63.4316 61.296 63.4316 60.656 64.0236 60.656C64.6316 60.656 64.6316 61.296 64.6316 61.792V66H68.6316V61.792C68.6316 61.296 68.6316 60.656 69.2236 60.656C69.8316 60.656 69.8316 61.296 69.8316 61.792V66H73.8316V60.72C73.8316 58.88 72.9356 57.312 70.9036 57.312C69.5916 57.312 68.8076 57.936 68.3276 59.12H68.2316C67.8636 57.968 67.0156 57.312 65.7996 57.312C64.7116 57.312 63.6716 57.968 63.3356 59.008H63.2076L63.3356 57.504ZM85.9715 62.448C86.1795 59.264 83.7955 57.312 80.7715 57.312C78.0675 57.312 75.8915 59.072 75.8915 61.888C75.8915 64.816 78.3395 66.192 81.0115 66.192C82.9635 66.192 85.2515 65.248 85.7955 63.2H81.7795C81.6995 63.6 81.3795 63.904 80.9475 63.904C80.0835 63.904 79.9715 63.136 79.9715 62.448H85.9715ZM79.9715 60.688C79.9715 60.096 80.2755 59.584 80.8995 59.584C81.4915 59.584 81.9075 60.112 81.9075 60.688H79.9715ZM94.9514 57.312C93.5594 57.28 92.8074 57.52 92.0714 58.64H91.9754L92.0714 57.504H87.9434V66H92.0714V62.736C92.0714 61.68 92.6154 61.04 93.6874 61.04C94.2154 61.04 94.5194 61.248 94.9514 61.504V57.312ZM100.329 61.76C100.329 61.088 100.793 60.544 101.465 60.544C102.153 60.544 102.537 61.136 102.537 61.776C102.537 62.416 102.201 62.96 101.497 62.96C100.777 62.96 100.329 62.448 100.329 61.76ZM106.393 57.504H102.393L102.505 58.72H102.393C101.833 57.824 101.001 57.312 99.9132 57.312C97.5612 57.312 96.2492 59.632 96.2492 61.744C96.2492 63.856 97.5772 66.192 99.8972 66.192C100.873 66.192 101.977 65.712 102.393 64.784H102.505L102.425 65.648C102.329 66.704 101.657 67.52 100.537 67.52C99.5292 67.52 98.3452 67.152 97.5612 66.48L96.6492 69.344L97.0652 69.488C98.2812 69.936 99.4012 70.16 100.713 70.16C103.673 70.16 106.393 68.816 106.393 65.504V57.504ZM118.532 62.448C118.74 59.264 116.356 57.312 113.332 57.312C110.628 57.312 108.452 59.072 108.452 61.888C108.452 64.816 110.9 66.192 113.572 66.192C115.524 66.192 117.812 65.248 118.356 63.2H114.34C114.26 63.6 113.94 63.904 113.508 63.904C112.644 63.904 112.532 63.136 112.532 62.448H118.532ZM112.532 60.688C112.532 60.096 112.836 59.584 113.46 59.584C114.052 59.584 114.468 60.112 114.468 60.688H112.532ZM124.552 57.504H120.52V66H124.648V61.856C124.648 61.36 124.648 60.656 125.336 60.656C126.04 60.656 126.04 61.36 126.04 61.856V66H130.168V60.768C130.168 58.896 129.336 57.312 127.224 57.312C125.896 57.312 125.288 57.936 124.488 58.864H124.392L124.552 57.504ZM139.066 57.744C138.234 57.472 137.338 57.312 136.474 57.312C133.93 57.312 132.09 59.28 132.09 61.792C132.09 64.64 134.058 66.192 136.81 66.192C137.53 66.192 138.25 66 138.89 65.792L139.066 62.304C138.586 62.64 138.106 62.96 137.466 62.96C136.794 62.96 136.25 62.416 136.25 61.744C136.25 60.976 136.794 60.48 137.546 60.48C138.138 60.48 138.634 60.816 139.066 61.184V57.744ZM140.117 57.504L143.749 65.152L141.557 69.504H145.909L151.349 57.504H147.013L146.069 60.832L145.861 62.128H145.749L145.509 60.832L144.565 57.504H140.117Z" fill="#011638"/>
<mask id="mask0" mask-type="alpha" maskUnits="userSpaceOnUse" x="210" y="33" width="80" height="34">
<path d="M273.913 57.0668C279.338 57.0668 283.753 61.4805 283.753 66.9065H290C290 60.8722 286.66 55.6043 281.733 52.8519C282.712 51.3717 283.284 49.5992 283.284 47.695C283.284 42.5277 279.08 38.3238 273.913 38.3238C268.746 38.3238 264.542 42.5277 264.542 47.695C264.542 49.6005 265.115 51.3735 266.095 52.855C265.325 53.2833 264.589 53.7744 263.896 54.3248C262.366 52.6384 260.534 51.2314 258.486 50.1899C259.835 48.4088 260.637 46.1922 260.637 43.7907C260.637 37.9345 255.872 33.1699 250.016 33.1699C244.16 33.1699 239.395 37.9345 239.395 43.7907C239.395 46.1922 240.198 48.4088 241.546 50.1899C239.498 51.2314 237.666 52.6384 236.136 54.3248C235.443 53.7744 234.708 53.2833 233.937 52.8543C234.918 51.3735 235.49 49.6005 235.49 47.695C235.49 42.5277 231.287 38.3238 226.119 38.3238C220.952 38.3238 216.748 42.5277 216.748 47.695C216.748 49.5992 217.32 51.3711 218.3 52.8519C213.372 55.6043 210.032 60.8722 210.032 66.9065H216.28C216.28 61.4805 220.694 57.0668 226.12 57.0668C228.583 57.0668 230.946 58.0015 232.743 59.6324C231.797 61.8704 231.274 64.3281 231.274 66.9065H237.521C237.521 60.0168 243.126 54.4114 250.016 54.4114C256.906 54.4114 262.511 60.0168 262.511 66.9065H268.758C268.758 64.3281 268.235 61.8704 267.289 59.6324C269.086 58.0015 271.449 57.0668 273.913 57.0668ZM270.789 47.695C270.789 45.9725 272.191 44.5717 273.913 44.5717C275.635 44.5717 277.036 45.9725 277.036 47.695C277.036 49.4174 275.635 50.8189 273.913 50.8189C272.191 50.8189 270.789 49.418 270.789 47.695ZM222.996 47.695C222.996 45.9725 224.397 44.5717 226.12 44.5717C227.842 44.5717 229.243 45.9725 229.243 47.695C229.243 49.4174 227.842 50.8189 226.12 50.8189C224.397 50.8189 222.996 49.418 222.996 47.695ZM245.643 43.7907C245.643 41.3794 247.605 39.4172 250.016 39.4172C252.427 39.4172 254.39 41.3794 254.39 43.7907C254.39 46.202 252.427 48.1636 250.016 48.1636C247.605 48.1636 245.643 46.202 245.643 43.7907Z" fill="black"/>
</mask>
<g mask="url(#mask0)">
<circle cx="250.019" cy="52.0661" r="36.8625" fill="white"/>
</g>
</svg>
