<svg width="240" height="101" viewBox="0 0 240 101" fill="none" xmlns="http://www.w3.org/2000/svg">
<rect width="240" height="101" rx="50.5" fill="#7158E2"/>
<path d="M72.7312 42.536C71.432 42.088 69.9984 41.8416 68.6096 41.8416C63.6592 41.8416 59.784 45.784 59.784 50.712C59.784 55.528 63.5472 59.2688 68.3632 59.2688C69.4608 59.2688 71.7456 59.0672 72.7312 58.5968L72.9104 52.28C71.9248 53.2432 70.8048 53.848 69.3936 53.848C67.5568 53.848 65.9664 52.4144 65.9664 50.5552C65.9664 48.7184 67.4672 47.2624 69.304 47.2624C70.6928 47.2624 71.9248 48.0464 72.9104 48.9648L72.7312 42.536ZM84.7208 41.8416C79.5912 41.8416 75.38 45.2912 75.38 50.6C75.38 56.0208 79.5688 59.2688 84.7208 59.2688C89.8728 59.2688 94.0616 56.0208 94.0616 50.6C94.0616 45.2912 89.8504 41.8416 84.7208 41.8416ZM84.7208 47.3968C86.6696 47.3968 87.8792 48.8976 87.8792 50.6896C87.8792 52.616 86.58 53.9376 84.7208 53.9376C82.8616 53.9376 81.5624 52.616 81.5624 50.6896C81.5624 48.8976 82.772 47.3968 84.7208 47.3968ZM97.0474 59H102.916V53.512C102.916 52.392 102.737 51.2944 102.535 50.1296H102.715L108.113 59H113.982V42.1104H108.113V47.1728C108.113 48.6064 108.382 50.0624 108.628 51.4736H108.449L102.939 42.1104H97.0474V59ZM117.478 59H123.347V53.512C123.347 52.392 123.167 51.2944 122.966 50.1296H123.145L128.543 59H134.412V42.1104H128.543V47.1728C128.543 48.6064 128.812 50.0624 129.059 51.4736H128.879L123.369 42.1104H117.478V59ZM137.908 59H149.444V54.3856H144.091V52.728H148.817V48.3376H144.091V46.7248H149.265V42.1104H137.908V59ZM165.214 42.536C163.915 42.088 162.482 41.8416 161.093 41.8416C156.142 41.8416 152.267 45.784 152.267 50.712C152.267 55.528 156.03 59.2688 160.846 59.2688C161.944 59.2688 164.229 59.0672 165.214 58.5968L165.394 52.28C164.408 53.2432 163.288 53.848 161.877 53.848C160.04 53.848 158.45 52.4144 158.45 50.5552C158.45 48.7184 159.95 47.2624 161.787 47.2624C163.176 47.2624 164.408 48.0464 165.394 48.9648L165.214 42.536ZM167.303 47.5984L170.686 47.4416V59H176.823V47.4416L180.206 47.5984V42.1104H167.303V47.5984Z" fill="white"/>
</svg>
