<svg width="166" height="371" viewBox="0 0 166 371" fill="none" xmlns="http://www.w3.org/2000/svg">
<path d="M6.74058 287.723C8.64458 288.686 11.1086 289.269 13.2366 289.269C16.8878 289.269 20.5614 287.275 20.5614 283.243C20.5614 280.376 18.6798 278.987 16.0814 278.405L14.6926 278.091C14.2222 277.979 13.4606 277.89 13.4606 277.262C13.4606 276.568 14.2446 276.366 14.7822 276.366C16.1038 276.366 17.291 276.926 18.3438 277.643L20.0014 273.32C18.3438 272.312 16.5742 271.842 14.6478 271.842C10.9742 271.842 7.32298 274.082 7.32298 278.091C7.32298 280.734 9.33898 282.146 11.7358 282.571L12.9678 282.795C13.5278 282.907 14.3342 282.974 14.3342 283.736C14.3342 284.498 13.371 284.744 12.7662 284.744C11.355 284.744 10.0334 284.05 8.93578 283.198L8.62218 282.952L6.74058 287.723ZM30.1057 281.362C30.9793 281.362 31.6065 282.168 31.6065 282.997C31.6065 283.803 31.0017 284.744 30.1057 284.744C29.1425 284.744 28.6273 283.938 28.6273 283.042C28.6273 282.168 29.1425 281.362 30.1057 281.362ZM28.6273 277.106H23.1169V293.906H28.8961V289.269L28.6273 287.365H28.7841C29.4337 288.53 31.0017 289.269 32.3009 289.269C35.5489 289.269 37.2961 285.752 37.2961 282.952C37.2961 279.973 35.6833 276.837 32.3457 276.837C30.8449 276.837 29.2769 277.621 28.6273 278.987H28.4481L28.6273 277.106ZM53.7785 284.027C54.0697 279.57 50.7321 276.837 46.4985 276.837C42.7129 276.837 39.6665 279.301 39.6665 283.243C39.6665 287.342 43.0937 289.269 46.8345 289.269C49.5673 289.269 52.7705 287.947 53.5321 285.08H47.9097C47.7977 285.64 47.3497 286.066 46.7449 286.066C45.5353 286.066 45.3785 284.99 45.3785 284.027H53.7785ZM45.3785 281.563C45.3785 280.734 45.8041 280.018 46.6777 280.018C47.5065 280.018 48.0889 280.757 48.0889 281.563H45.3785ZM61.8927 282.997C61.8927 282.123 62.4751 281.362 63.3935 281.362C64.3119 281.362 64.9391 282.034 64.9391 282.952C64.9391 283.87 64.4911 284.744 63.3935 284.744C62.3407 284.744 61.8927 283.938 61.8927 282.997ZM64.7599 289H70.4271V277.106H64.7599L64.9391 278.517H64.8047C63.9535 277.352 62.7663 276.837 61.3327 276.837C57.9727 276.837 56.1583 280.107 56.1583 283.109C56.1583 285.998 57.9503 289.269 61.1759 289.269C62.8111 289.269 63.7519 288.552 64.8047 287.432H64.9391L64.7599 289ZM73.6242 289H79.4034V284.632H79.5378L81.957 289H88.7666L84.1746 282.93L88.5426 277.106H81.8002L80.0082 280.51L79.5378 281.518H79.4034V270.834H73.6242V289ZM101.494 289H107.363V283.512C107.363 282.392 107.184 281.294 106.982 280.13H107.162L112.56 289H118.429V272.11H112.56V277.173C112.56 278.606 112.829 280.062 113.075 281.474H112.896L107.386 272.11H101.494V289ZM128.622 276.837C124.702 276.837 121.41 279.032 121.41 283.198C121.41 287.141 124.904 289.269 128.622 289.269C132.341 289.269 135.835 287.141 135.835 283.198C135.835 279.032 132.542 276.837 128.622 276.837ZM128.622 281.362C129.586 281.362 130.235 282.146 130.235 283.109C130.235 284.05 129.518 284.744 128.622 284.744C127.726 284.744 127.01 284.05 127.01 283.109C127.01 282.146 127.659 281.362 128.622 281.362ZM137.176 277.106L141.992 289H146.719L147.816 284.968L148.107 283.714H148.264L149.563 289H154.223L159.106 277.106H153.035L152.005 281.742L151.714 283.714H151.579L150.034 277.106H146.248L145.106 281.742L144.815 283.714H144.635L143.269 277.106H137.176Z" fill="#011638"/>
<path d="M49.8 72.2128V63.6333H44.2667V71.9333H38.7333V63.6333C38.7333 62.1061 37.4939 60.8667 35.9667 60.8667H24.9C23.3728 60.8667 22.1333 62.1061 22.1333 63.6333V71.9333H16.6V19.3667H19.3667C20.8939 19.3667 22.1333 18.1272 22.1333 16.6V8.3C22.1333 3.72393 18.4094 0 13.8333 0C9.25727 0 5.53333 3.72393 5.53333 8.3V16.6C5.53333 18.1272 6.7728 19.3667 8.3 19.3667H11.0667V72.2128C4.76143 73.4993 0 79.0879 0 85.7667V152.167C0 159.794 6.20563 166 13.8333 166H47.0333C54.661 166 60.8667 159.794 60.8667 152.167V85.7667C60.8667 79.0879 56.1052 73.4993 49.8 72.2128ZM27.6667 66.4H33.2V71.9333H27.6667V66.4ZM11.0667 8.3C11.0667 6.77557 12.3089 5.53333 13.8333 5.53333C15.3578 5.53333 16.6 6.77557 16.6 8.3V13.8333H11.0667V8.3ZM47.0333 160.467H13.8333C10.6959 160.467 7.99013 158.696 6.5819 156.12L15.0728 151.876C16.0079 151.406 16.6 150.449 16.6 149.4V143.867H44.2667V149.4C44.2667 150.449 44.8587 151.406 45.7966 151.876L54.2875 156.12C52.8765 158.696 50.1707 160.467 47.0333 160.467ZM55.3333 150.457L49.8 147.69V141.1C49.8 139.573 48.5605 138.333 47.0333 138.333H13.8333C12.3061 138.333 11.0667 139.573 11.0667 141.1V147.69L5.53333 150.457V85.7667C5.53333 81.1906 9.25727 77.4667 13.8333 77.4667H24.9H35.9667H47.0333C51.6094 77.4667 55.3333 81.1906 55.3333 85.7667V150.457Z" fill="#CDCDCD"/>
<path d="M47.0334 85.7667H13.8334V91.3H47.0334V85.7667Z" fill="#CDCDCD"/>
<path d="M47.0334 96.8333H13.8334V102.367H47.0334V96.8333Z" fill="#CDCDCD"/>
<path d="M47.0334 107.9H13.8334V113.433H47.0334V107.9Z" fill="#CDCDCD"/>
<path d="M22.1333 127.267H16.6V132.8H22.1333V127.267Z" fill="#CDCDCD"/>
<path d="M33.2 127.267H27.6666V132.8H33.2V127.267Z" fill="#CDCDCD"/>
<path d="M44.2666 127.267H38.7333V132.8H44.2666V127.267Z" fill="#CDCDCD"/>
<path d="M154.933 72.2128V63.6333H149.4V71.9333H143.867V63.6333C143.867 62.1061 142.627 60.8667 141.1 60.8667H130.033C128.506 60.8667 127.267 62.1061 127.267 63.6333V71.9333H121.733V19.3667H124.5C126.027 19.3667 127.267 18.1272 127.267 16.6V8.3C127.267 3.72393 123.543 0 118.967 0C114.391 0 110.667 3.72393 110.667 8.3V16.6C110.667 18.1272 111.906 19.3667 113.433 19.3667H116.2V72.2128C109.895 73.4993 105.133 79.0852 105.133 85.7667V152.167C105.133 159.794 111.339 166 118.967 166H152.167C159.794 166 166 159.794 166 152.167V85.7667C166 79.0879 161.239 73.4993 154.933 72.2128ZM132.8 66.4H138.333V71.9333H132.8V66.4ZM116.2 8.3C116.2 6.77557 117.442 5.53333 118.967 5.53333C120.491 5.53333 121.733 6.77557 121.733 8.3V13.8333H116.2V8.3ZM152.167 160.467H118.967C115.829 160.467 113.123 158.696 111.715 156.12L120.206 151.876C121.141 151.406 121.733 150.449 121.733 149.4V143.867H149.4V149.4C149.4 150.449 149.992 151.406 150.93 151.876L159.421 156.12C158.01 158.696 155.304 160.467 152.167 160.467ZM160.467 150.457L154.933 147.69V141.1C154.933 139.573 153.694 138.333 152.167 138.333H118.967C117.439 138.333 116.2 139.573 116.2 141.1V147.69L110.667 150.457V85.7667C110.667 81.1906 114.391 77.4667 118.967 77.4667H130.033H141.1H152.167C156.743 77.4667 160.467 81.1906 160.467 85.7667V150.457Z" fill="#CDCDCD"/>
<path d="M152.167 85.7667H118.967V91.3H152.167V85.7667Z" fill="#CDCDCD"/>
<path d="M152.167 96.8333H118.967V102.367H152.167V96.8333Z" fill="#CDCDCD"/>
<path d="M152.167 107.9H118.967V113.433H152.167V107.9Z" fill="#CDCDCD"/>
<path d="M127.267 127.267H121.733V132.8H127.267V127.267Z" fill="#CDCDCD"/>
<path d="M138.333 127.267H132.8V132.8H138.333V127.267Z" fill="#CDCDCD"/>
<path d="M149.4 127.267H143.867V132.8H149.4V127.267Z" fill="#CDCDCD"/>
<path d="M33.2 8.29999H27.6666V13.8333H33.2V8.29999Z" fill="#CDCDCD"/>
<path d="M44.2666 8.29999H38.7333V13.8333H44.2666V8.29999Z" fill="#CDCDCD"/>
<path d="M55.3334 8.29999H49.8V13.8333H55.3334V8.29999Z" fill="#CDCDCD"/>
<path d="M66.4 8.29999H60.8667V13.8333H66.4V8.29999Z" fill="#CDCDCD"/>
<path d="M77.4667 8.29999H71.9333V13.8333H77.4667V8.29999Z" fill="#CDCDCD"/>
<path d="M88.5333 8.29999H83V13.8333H88.5333V8.29999Z" fill="#CDCDCD"/>
<path d="M99.6 8.29999H94.0667V13.8333H99.6V8.29999Z" fill="#CDCDCD"/>
<path d="M38.7333 19.3666H33.2V24.9H38.7333V19.3666Z" fill="#CDCDCD"/>
<path d="M49.8001 19.3666H44.2667V24.9H49.8001V19.3666Z" fill="#CDCDCD"/>
<path d="M60.8667 19.3666H55.3334V24.9H60.8667V19.3666Z" fill="#CDCDCD"/>
<path d="M71.9333 19.3666H66.4V24.9H71.9333V19.3666Z" fill="#CDCDCD"/>
<path d="M83 19.3666H77.4667V24.9H83V19.3666Z" fill="#CDCDCD"/>
<path d="M94.0667 19.3666H88.5333V24.9H94.0667V19.3666Z" fill="#CDCDCD"/>
<path d="M105.133 19.3666H99.6V24.9H105.133V19.3666Z" fill="#CDCDCD"/>
<path d="M10.2482 362.221C9.66577 362.03 9.03857 361.918 8.43377 361.918C6.65297 361.918 5.36497 363.296 5.36497 365.054C5.36497 367.048 6.74257 368.134 8.66897 368.134C9.17297 368.134 9.67697 368 10.125 367.854L10.2482 365.413C9.91217 365.648 9.57617 365.872 9.12817 365.872C8.65777 365.872 8.27697 365.491 8.27697 365.021C8.27697 364.483 8.65777 364.136 9.18417 364.136C9.59857 364.136 9.94577 364.371 10.2482 364.629V362.221ZM15.0045 361.918C13.0445 361.918 11.3981 363.016 11.3981 365.099C11.3981 367.07 13.1453 368.134 15.0045 368.134C16.8637 368.134 18.6109 367.07 18.6109 365.099C18.6109 363.016 16.9645 361.918 15.0045 361.918ZM15.0045 364.181C15.4861 364.181 15.8109 364.573 15.8109 365.054C15.8109 365.525 15.4525 365.872 15.0045 365.872C14.5565 365.872 14.1981 365.525 14.1981 365.054C14.1981 364.573 14.5229 364.181 15.0045 364.181ZM22.6078 362.053H19.7854V368H22.675V365.099C22.675 364.752 22.675 364.259 23.1566 364.259C23.6494 364.259 23.6494 364.752 23.6494 365.099V368H26.539V364.338C26.539 363.027 25.9566 361.918 24.4782 361.918C23.5486 361.918 23.123 362.355 22.563 363.005H22.4958L22.6078 362.053ZM30.7068 362.053H27.8844V368H30.774V365.099C30.774 364.752 30.774 364.259 31.2556 364.259C31.7484 364.259 31.7484 364.752 31.7484 365.099V368H34.638V364.338C34.638 363.027 34.0556 361.918 32.5772 361.918C31.6476 361.918 31.222 362.355 30.662 363.005H30.5948L30.7068 362.053ZM42.8602 365.514C43.0058 363.285 41.337 361.918 39.2202 361.918C37.3274 361.918 35.8042 363.15 35.8042 365.122C35.8042 367.171 37.5178 368.134 39.3882 368.134C40.7546 368.134 42.3562 367.474 42.737 366.04H39.9258C39.8698 366.32 39.6458 366.533 39.3434 366.533C38.7386 366.533 38.6602 365.995 38.6602 365.514H42.8602ZM38.6602 364.282C38.6602 363.867 38.873 363.509 39.3098 363.509C39.7242 363.509 40.0154 363.878 40.0154 364.282H38.6602ZM48.6869 362.221C48.1045 362.03 47.4773 361.918 46.8725 361.918C45.0917 361.918 43.8037 363.296 43.8037 365.054C43.8037 367.048 45.1813 368.134 47.1077 368.134C47.6117 368.134 48.1157 368 48.5637 367.854L48.6869 365.413C48.3509 365.648 48.0149 365.872 47.5669 365.872C47.0965 365.872 46.7157 365.491 46.7157 365.021C46.7157 364.483 47.0965 364.136 47.6229 364.136C48.0373 364.136 48.3845 364.371 48.6869 364.629V362.221ZM53.2976 360.138H50.3856V362.131L49.68 362.086V364.36L50.3856 364.304V368H53.2976V364.304L54.2608 364.36V362.086L53.2976 362.131V360.138ZM55.2646 368H58.1542V362.053H55.2646V368ZM56.7094 358.827C55.8022 358.827 55.119 359.354 55.119 360.216C55.119 361.19 55.8806 361.616 56.7094 361.616C57.5382 361.616 58.2998 361.19 58.2998 360.216C58.2998 359.354 57.6166 358.827 56.7094 358.827ZM63.1225 361.918C61.1625 361.918 59.5161 363.016 59.5161 365.099C59.5161 367.07 61.2633 368.134 63.1225 368.134C64.9817 368.134 66.7289 367.07 66.7289 365.099C66.7289 363.016 65.0825 361.918 63.1225 361.918ZM63.1225 364.181C63.6041 364.181 63.9289 364.573 63.9289 365.054C63.9289 365.525 63.5705 365.872 63.1225 365.872C62.6745 365.872 62.3161 365.525 62.3161 365.054C62.3161 364.573 62.6409 364.181 63.1225 364.181ZM70.7258 362.053H67.9034V368H70.793V365.099C70.793 364.752 70.793 364.259 71.2746 364.259C71.7674 364.259 71.7674 364.752 71.7674 365.099V368H74.657V364.338C74.657 363.027 74.0746 361.918 72.5962 361.918C71.6666 361.918 71.241 362.355 70.681 363.005H70.6138L70.7258 362.053ZM87.7626 365.514C87.9082 363.285 86.2394 361.918 84.1226 361.918C82.2298 361.918 80.7066 363.15 80.7066 365.122C80.7066 367.171 82.4202 368.134 84.2906 368.134C85.657 368.134 87.2586 367.474 87.6394 366.04H84.8282C84.7722 366.32 84.5482 366.533 84.2458 366.533C83.641 366.533 83.5626 365.995 83.5626 365.514H87.7626ZM83.5626 364.282C83.5626 363.867 83.7754 363.509 84.2122 363.509C84.6266 363.509 84.9178 363.878 84.9178 364.282H83.5626ZM88.4709 367.474C89.3333 367.843 90.2517 368.134 91.1925 368.134C92.5365 368.134 94.0709 367.496 94.0709 365.95C94.0709 364.752 93.2309 364.394 92.2005 364.226C91.7973 364.158 91.4837 364.136 91.4837 363.845C91.4837 363.632 91.7189 363.576 91.8981 363.576C92.3685 363.576 92.8613 363.8 93.2309 364.069L93.9365 362.422C93.2869 362.064 92.3685 361.918 91.6293 361.918C90.3525 361.918 88.8517 362.512 88.8517 364.002C88.8517 365.122 89.7477 365.514 90.7109 365.648C90.9461 365.682 91.2933 365.693 91.2933 366.018C91.2933 366.242 91.0581 366.342 90.8677 366.342C90.3749 366.342 89.7925 366.04 89.3893 365.794L89.2101 365.682L88.4709 367.474ZM98.4188 360.138H95.5068V362.131L94.8012 362.086V364.36L95.5068 364.304V368H98.4188V364.304L99.382 364.36V362.086L98.4188 362.131V360.138ZM102.861 364.998C102.861 364.562 103.152 364.181 103.611 364.181C104.07 364.181 104.384 364.517 104.384 364.976C104.384 365.435 104.16 365.872 103.611 365.872C103.085 365.872 102.861 365.469 102.861 364.998ZM104.294 368H107.128V362.053H104.294L104.384 362.758H104.317C103.891 362.176 103.298 361.918 102.581 361.918C100.901 361.918 99.9937 363.554 99.9937 365.054C99.9937 366.499 100.89 368.134 102.502 368.134C103.32 368.134 103.79 367.776 104.317 367.216H104.384L104.294 368ZM112.008 364.181C112.445 364.181 112.759 364.584 112.759 364.998C112.759 365.402 112.456 365.872 112.008 365.872C111.527 365.872 111.269 365.469 111.269 365.021C111.269 364.584 111.527 364.181 112.008 364.181ZM108.48 368H111.191L111.135 367.115H111.202C111.683 367.72 112.367 368.134 113.139 368.134C114.752 368.134 115.603 366.499 115.603 365.077C115.603 363.598 114.808 361.918 113.128 361.918C112.456 361.918 111.739 362.299 111.336 362.848H111.235L111.37 361.426V358.917H108.48V368ZM116.844 368H119.733V358.917H116.844V368ZM121.358 368H124.247V362.053H121.358V368ZM122.802 358.827C121.895 358.827 121.212 359.354 121.212 360.216C121.212 361.19 121.974 361.616 122.802 361.616C123.631 361.616 124.393 361.19 124.393 360.216C124.393 359.354 123.71 358.827 122.802 358.827ZM125.318 367.474C126.18 367.843 127.099 368.134 128.04 368.134C129.384 368.134 130.918 367.496 130.918 365.95C130.918 364.752 130.078 364.394 129.048 364.226C128.644 364.158 128.331 364.136 128.331 363.845C128.331 363.632 128.566 363.576 128.745 363.576C129.216 363.576 129.708 363.8 130.078 364.069L130.784 362.422C130.134 362.064 129.216 361.918 128.476 361.918C127.2 361.918 125.699 362.512 125.699 364.002C125.699 365.122 126.595 365.514 127.558 365.648C127.793 365.682 128.14 365.693 128.14 366.018C128.14 366.242 127.905 366.342 127.715 366.342C127.222 366.342 126.64 366.04 126.236 365.794L126.057 365.682L125.318 367.474ZM131.973 368H134.863V364.931C134.863 364.562 134.963 364.226 135.411 364.226C135.826 364.226 135.871 364.618 135.871 364.931V368H138.693V364.349C138.693 363.038 138.167 361.918 136.688 361.918C135.859 361.918 135.311 362.434 134.773 363.072H134.728L134.863 361.426V358.917H131.973V368ZM146.905 365.514C147.051 363.285 145.382 361.918 143.265 361.918C141.372 361.918 139.849 363.15 139.849 365.122C139.849 367.171 141.563 368.134 143.433 368.134C144.8 368.134 146.401 367.474 146.782 366.04H143.971C143.915 366.32 143.691 366.533 143.388 366.533C142.784 366.533 142.705 365.995 142.705 365.514H146.905ZM142.705 364.282C142.705 363.867 142.918 363.509 143.355 363.509C143.769 363.509 144.06 363.878 144.06 364.282H142.705ZM151.477 364.181C151.914 364.181 152.228 364.584 152.228 364.998C152.228 365.402 151.925 365.872 151.477 365.872C150.996 365.872 150.738 365.469 150.738 365.021C150.738 364.584 150.996 364.181 151.477 364.181ZM152.306 368H155.017V358.917H152.127V361.426L152.261 362.848H152.161C151.757 362.299 151.041 361.918 150.369 361.918C148.689 361.918 147.893 363.598 147.893 365.077C147.893 366.499 148.745 368.134 150.357 368.134C151.13 368.134 151.813 367.72 152.295 367.115H152.362L152.306 368ZM159.841 364.774V359.006H156.884V364.774H159.841ZM158.362 365.323C157.545 365.323 156.694 365.85 156.694 366.746C156.694 367.63 157.545 368.134 158.362 368.134C159.18 368.134 160.031 367.63 160.031 366.746C160.031 365.85 159.18 365.323 158.362 365.323Z" fill="#CDCDCD"/>
</svg>
