<svg width="269" height="326" viewBox="0 0 269 326" fill="none" xmlns="http://www.w3.org/2000/svg">
<path d="M1.617 292H7.7994V286.086H12.3018V281.696H7.7994V279.949H12.929V275.11H1.617V292ZM16.1 292H21.8792V280.106H16.1V292ZM18.9896 273.654C17.1752 273.654 15.8088 274.707 15.8088 276.432C15.8088 278.381 17.332 279.232 18.9896 279.232C20.6472 279.232 22.1704 278.381 22.1704 276.432C22.1704 274.707 20.804 273.654 18.9896 273.654ZM31.0319 280.106H25.3871V292H31.1663V286.198C31.1663 285.504 31.1663 284.518 32.1295 284.518C33.1151 284.518 33.1151 285.504 33.1151 286.198V292H38.8943V284.675C38.8943 282.054 37.7295 279.837 34.7727 279.837C32.9135 279.837 32.0623 280.71 30.9423 282.01H30.8079L31.0319 280.106ZM48.8427 284.362C49.7163 284.362 50.3435 285.168 50.3435 285.997C50.3435 286.803 49.7387 287.744 48.8427 287.744C47.8795 287.744 47.3643 286.938 47.3643 286.042C47.3643 285.168 47.8795 284.362 48.8427 284.362ZM50.5003 292H55.9211V273.834H50.1419V278.851L50.4107 281.696H50.2091C49.4027 280.598 47.9691 279.837 46.6251 279.837C43.2651 279.837 41.6747 283.197 41.6747 286.154C41.6747 288.998 43.3771 292.269 46.6027 292.269C48.1483 292.269 49.5147 291.44 50.4779 290.23H50.6123L50.5003 292ZM59.4317 292H65.2109V280.106H59.4317V292ZM62.3213 273.654C60.5069 273.654 59.1405 274.707 59.1405 276.432C59.1405 278.381 60.6637 279.232 62.3213 279.232C63.9789 279.232 65.5021 278.381 65.5021 276.432C65.5021 274.707 64.1357 273.654 62.3213 273.654ZM74.3636 280.106H68.7188V292H74.498V286.198C74.498 285.504 74.498 284.518 75.4612 284.518C76.4468 284.518 76.4468 285.504 76.4468 286.198V292H82.226V284.675C82.226 282.054 81.0612 279.837 78.1044 279.837C76.2452 279.837 75.394 280.71 74.274 282.01H74.1396L74.3636 280.106ZM90.696 286.064C90.696 285.123 91.3456 284.362 92.2864 284.362C93.2496 284.362 93.7872 285.19 93.7872 286.086C93.7872 286.982 93.3168 287.744 92.3312 287.744C91.3232 287.744 90.696 287.027 90.696 286.064ZM99.1856 280.106H93.5856L93.7424 281.808H93.5856C92.8016 280.554 91.6368 279.837 90.1136 279.837C86.8208 279.837 84.984 283.085 84.984 286.042C84.984 288.998 86.8432 292.269 90.0912 292.269C91.4576 292.269 93.0032 291.597 93.5856 290.298H93.7424L93.6304 291.507C93.496 292.986 92.5552 294.128 90.9872 294.128C89.576 294.128 87.9184 293.613 86.8208 292.672L85.544 296.682L86.1264 296.883C87.8288 297.51 89.3968 297.824 91.2336 297.824C95.3776 297.824 99.1856 295.942 99.1856 291.306V280.106ZM121.96 280.442C120.795 280.061 119.54 279.837 118.331 279.837C114.769 279.837 112.193 282.592 112.193 286.109C112.193 290.096 114.948 292.269 118.801 292.269C119.809 292.269 120.817 292 121.713 291.709L121.96 286.826C121.288 287.296 120.616 287.744 119.72 287.744C118.779 287.744 118.017 286.982 118.017 286.042C118.017 284.966 118.779 284.272 119.832 284.272C120.66 284.272 121.355 284.742 121.96 285.258V280.442ZM131.92 279.837C128 279.837 124.707 282.032 124.707 286.198C124.707 290.141 128.202 292.269 131.92 292.269C135.639 292.269 139.133 290.141 139.133 286.198C139.133 282.032 135.84 279.837 131.92 279.837ZM131.92 284.362C132.883 284.362 133.533 285.146 133.533 286.109C133.533 287.05 132.816 287.744 131.92 287.744C131.024 287.744 130.307 287.05 130.307 286.109C130.307 285.146 130.957 284.362 131.92 284.362ZM147.575 280.106H141.93V292H147.709V286.198C147.709 285.504 147.709 284.518 148.672 284.518C149.658 284.518 149.658 285.504 149.658 286.198V292H155.437V284.675C155.437 282.054 154.272 279.837 151.316 279.837C149.456 279.837 148.605 280.71 147.485 282.01H147.351L147.575 280.106ZM164.221 280.106H158.576V292H164.355V286.198C164.355 285.504 164.355 284.518 165.318 284.518C166.304 284.518 166.304 285.504 166.304 286.198V292H172.083V284.675C172.083 282.054 170.918 279.837 167.962 279.837C166.102 279.837 165.251 280.71 164.131 282.01H163.997L164.221 280.106ZM188.976 287.027C189.267 282.57 185.929 279.837 181.696 279.837C177.91 279.837 174.864 282.301 174.864 286.243C174.864 290.342 178.291 292.269 182.032 292.269C184.764 292.269 187.968 290.947 188.729 288.08H183.107C182.995 288.64 182.547 289.066 181.942 289.066C180.732 289.066 180.576 287.99 180.576 287.027H188.976ZM180.576 284.563C180.576 283.734 181.001 283.018 181.875 283.018C182.704 283.018 183.286 283.757 183.286 284.563H180.576ZM201.077 280.442C199.912 280.061 198.658 279.837 197.448 279.837C193.887 279.837 191.311 282.592 191.311 286.109C191.311 290.096 194.066 292.269 197.919 292.269C198.927 292.269 199.935 292 200.831 291.709L201.077 286.826C200.405 287.296 199.733 287.744 198.837 287.744C197.896 287.744 197.135 286.982 197.135 286.042C197.135 284.966 197.896 284.272 198.949 284.272C199.778 284.272 200.472 284.742 201.077 285.258V280.442ZM210.747 276.275H204.923V280.262L203.511 280.173V284.72L204.923 284.608V292H210.747V284.608L212.673 284.72V280.173L210.747 280.262V276.275ZM215.128 292H220.908V280.106H215.128V292ZM218.018 273.654C216.204 273.654 214.837 274.707 214.837 276.432C214.837 278.381 216.36 279.232 218.018 279.232C219.676 279.232 221.199 278.381 221.199 276.432C221.199 274.707 219.832 273.654 218.018 273.654ZM231.292 279.837C227.372 279.837 224.079 282.032 224.079 286.198C224.079 290.141 227.574 292.269 231.292 292.269C235.011 292.269 238.505 290.141 238.505 286.198C238.505 282.032 235.212 279.837 231.292 279.837ZM231.292 284.362C232.255 284.362 232.905 285.146 232.905 286.109C232.905 287.05 232.188 287.744 231.292 287.744C230.396 287.744 229.679 287.05 229.679 286.109C229.679 285.146 230.329 284.362 231.292 284.362ZM246.947 280.106H241.302V292H247.081V286.198C247.081 285.504 247.081 284.518 248.044 284.518C249.03 284.518 249.03 285.504 249.03 286.198V292H254.809V284.675C254.809 282.054 253.644 279.837 250.688 279.837C248.828 279.837 247.977 280.71 246.857 282.01H246.723L246.947 280.106ZM257.03 290.947C258.754 291.686 260.591 292.269 262.473 292.269C265.161 292.269 268.23 290.992 268.23 287.901C268.23 285.504 266.55 284.787 264.489 284.451C263.682 284.317 263.055 284.272 263.055 283.69C263.055 283.264 263.526 283.152 263.884 283.152C264.825 283.152 265.81 283.6 266.55 284.138L267.961 280.845C266.662 280.128 264.825 279.837 263.346 279.837C260.793 279.837 257.791 281.024 257.791 284.003C257.791 286.243 259.583 287.027 261.51 287.296C261.98 287.363 262.674 287.386 262.674 288.035C262.674 288.483 262.204 288.685 261.823 288.685C260.838 288.685 259.673 288.08 258.866 287.587L258.508 287.363L257.03 290.947ZM79.8652 308.106H74.2204V320H79.9996V314.198C79.9996 313.504 79.9996 312.518 80.9628 312.518C81.9484 312.518 81.9484 313.504 81.9484 314.198V320H87.7276V312.675C87.7276 310.054 86.5628 307.837 83.606 307.837C81.7468 307.837 80.8956 308.71 79.7756 310.01H79.6412L79.8652 308.106ZM104.62 315.027C104.911 310.57 101.574 307.837 97.34 307.837C93.5544 307.837 90.508 310.301 90.508 314.243C90.508 318.342 93.9352 320.269 97.676 320.269C100.409 320.269 103.612 318.947 104.374 316.08H98.7512C98.6392 316.64 98.1912 317.066 97.5864 317.066C96.3768 317.066 96.22 315.99 96.22 315.027H104.62ZM96.22 312.563C96.22 311.734 96.6456 311.018 97.5192 311.018C98.348 311.018 98.9304 311.757 98.9304 312.563H96.22ZM112.734 313.997C112.734 313.123 113.317 312.362 114.235 312.362C115.153 312.362 115.781 313.034 115.781 313.952C115.781 314.87 115.333 315.744 114.235 315.744C113.182 315.744 112.734 314.938 112.734 313.997ZM115.601 320H121.269V308.106H115.601L115.781 309.517H115.646C114.795 308.352 113.608 307.837 112.174 307.837C108.814 307.837 107 311.107 107 314.109C107 316.998 108.792 320.269 112.017 320.269C113.653 320.269 114.593 319.552 115.646 318.432H115.781L115.601 320ZM134.21 307.837C132.261 307.792 131.208 308.128 130.178 309.696H130.043L130.178 308.106H124.398V320H130.178V315.43C130.178 313.952 130.939 313.056 132.44 313.056C133.179 313.056 133.605 313.347 134.21 313.706V307.837ZM143.463 312.362C144.337 312.362 144.964 313.168 144.964 313.997C144.964 314.803 144.359 315.744 143.463 315.744C142.5 315.744 141.985 314.938 141.985 314.042C141.985 313.168 142.5 312.362 143.463 312.362ZM136.407 320H141.828L141.716 318.23H141.851C142.814 319.44 144.18 320.269 145.726 320.269C148.951 320.269 150.654 316.998 150.654 314.154C150.654 311.197 149.063 307.837 145.703 307.837C144.359 307.837 142.926 308.598 142.119 309.696H141.918L142.187 306.851V301.834H136.407V320ZM151.813 308.106L156.897 318.813L153.829 324.906H159.921L167.537 308.106H161.467L160.145 312.765L159.854 314.579H159.697L159.361 312.765L158.04 308.106H151.813ZM170.811 314.646C169.175 314.646 167.473 315.699 167.473 317.491C167.473 319.261 169.175 320.269 170.811 320.269C172.446 320.269 174.148 319.261 174.148 317.491C174.148 315.699 172.446 314.646 170.811 314.646ZM181.025 314.646C179.39 314.646 177.688 315.699 177.688 317.491C177.688 319.261 179.39 320.269 181.025 320.269C182.661 320.269 184.363 319.261 184.363 317.491C184.363 315.699 182.661 314.646 181.025 314.646ZM191.24 314.646C189.605 314.646 187.902 315.699 187.902 317.491C187.902 319.261 189.605 320.269 191.24 320.269C192.875 320.269 194.578 319.261 194.578 317.491C194.578 315.699 192.875 314.646 191.24 314.646Z" fill="#011638"/>
<path d="M110.812 72.5625H159.188V77.9375H110.812V72.5625Z" fill="#CDCDCD"/>
<path d="M110.812 83.3125H159.188V88.6875H110.812V83.3125Z" fill="#CDCDCD"/>
<path d="M116.188 120.938H153.812V94.0625H116.188V120.938ZM121.562 99.4375H148.438V115.562H121.562V99.4375Z" fill="#CDCDCD"/>
<path d="M137.688 153.188H143.062V158.562H137.688V153.188Z" fill="#CDCDCD"/>
<path d="M126.938 153.188H132.312V158.562H126.938V153.188Z" fill="#CDCDCD"/>
<path d="M148.438 153.188H153.812V158.562H148.438V153.188Z" fill="#CDCDCD"/>
<path d="M116.188 153.188H121.562V158.562H116.188V153.188Z" fill="#CDCDCD"/>
<path d="M126.938 142.438H132.312V147.812H126.938V142.438Z" fill="#CDCDCD"/>
<path d="M116.188 142.438H121.562V147.812H116.188V142.438Z" fill="#CDCDCD"/>
<path d="M137.688 142.438H143.062V147.812H137.688V142.438Z" fill="#CDCDCD"/>
<path d="M148.438 142.438H153.812V147.812H148.438V142.438Z" fill="#CDCDCD"/>
<path d="M116.188 131.688H121.562V137.062H116.188V131.688Z" fill="#CDCDCD"/>
<path d="M137.688 131.688H143.062V137.062H137.688V131.688Z" fill="#CDCDCD"/>
<path d="M148.438 131.688H153.812V137.062H148.438V131.688Z" fill="#CDCDCD"/>
<path d="M126.938 131.688H132.312V137.062H126.938V131.688Z" fill="#CDCDCD"/>
<path d="M172.625 72.5625H169.938V69.875C169.938 66.3759 167.683 63.4196 164.562 62.307V59.125C164.562 55.6259 162.308 52.6696 159.188 51.557V10.75C159.188 6.30487 155.57 2.6875 151.125 2.6875C146.68 2.6875 143.062 6.30487 143.062 10.75V51.557C139.942 52.6696 137.688 55.6259 137.688 59.125V61.8125H126.938V53.75C126.938 49.3049 123.32 45.6875 118.875 45.6875H113.5C109.055 45.6875 105.438 49.3049 105.438 53.75V62.307C102.317 63.4196 100.062 66.3759 100.062 69.875V72.5625H97.375C92.9299 72.5625 89.3125 76.1799 89.3125 80.625V91.375C89.3125 95.8201 92.9299 99.4375 97.375 99.4375H100.062V105.275C100.062 107.427 100.901 109.454 102.425 110.975L104.65 113.2C105.153 113.703 105.438 114.393 105.438 115.1V161.25C105.438 165.695 109.055 169.312 113.5 169.312H156.5C160.945 169.312 164.562 165.695 164.562 161.25V115.1C164.562 114.393 164.847 113.7 165.35 113.2L167.575 110.975C169.096 109.454 169.938 107.427 169.938 105.275V99.4375H172.625C177.07 99.4375 180.688 95.8201 180.688 91.375V80.625C180.688 76.1799 177.07 72.5625 172.625 72.5625ZM97.375 94.0625C95.8915 94.0625 94.6875 92.8585 94.6875 91.375V80.625C94.6875 79.1415 95.8915 77.9375 97.375 77.9375H100.062V94.0625H97.375ZM151.125 8.0625C152.609 8.0625 153.812 9.2665 153.812 10.75V51.0625H148.438V10.75C148.438 9.2665 149.641 8.0625 151.125 8.0625ZM143.062 59.125C143.062 57.6415 144.266 56.4375 145.75 56.4375H156.5C157.983 56.4375 159.188 57.6415 159.188 59.125V61.8125H143.062V59.125ZM113.5 51.0625H118.875C120.358 51.0625 121.562 52.2665 121.562 53.75V61.8125H110.812V53.75C110.812 52.2665 112.017 51.0625 113.5 51.0625ZM164.562 105.275C164.562 105.982 164.278 106.675 163.775 107.175L161.55 109.4C160.026 110.921 159.188 112.948 159.188 115.1V161.25C159.188 162.734 157.983 163.938 156.5 163.938H113.5C112.017 163.938 110.812 162.734 110.812 161.25V115.1C110.812 112.948 109.971 110.921 108.45 109.4L106.225 107.175C105.722 106.672 105.438 105.982 105.438 105.275V69.875C105.438 68.3915 106.642 67.1875 108.125 67.1875H161.875C163.358 67.1875 164.562 68.3915 164.562 69.875V105.275ZM175.312 91.375C175.312 92.8585 174.108 94.0625 172.625 94.0625H169.938V77.9375H172.625C174.108 77.9375 175.312 79.1415 175.312 80.625V91.375Z" fill="#CDCDCD"/>
<path d="M192.875 76.4997L189.075 80.2998C190.596 81.8209 191.438 83.8446 191.438 86C191.438 88.1554 190.596 90.1791 189.075 91.7002L192.875 95.5003C195.412 92.966 196.813 89.5905 196.813 86C196.813 82.4095 195.412 79.034 192.875 76.4997Z" fill="#CDCDCD"/>
<path d="M200.478 68.8967L196.678 72.6969C204.012 80.031 204.012 91.9689 196.678 99.3031L200.478 103.103C209.909 93.6701 209.909 78.3299 200.478 68.8967Z" fill="#CDCDCD"/>
<path d="M208.079 61.2965L204.278 65.0966C215.805 76.6233 215.805 95.3794 204.278 106.906L208.079 110.706C221.701 97.0833 221.701 74.9168 208.079 61.2965Z" fill="#CDCDCD"/>
<path d="M77.1247 76.4997C74.5877 79.034 73.1875 82.4095 73.1875 86C73.1875 89.5905 74.5877 92.966 77.1247 95.5003L80.9248 91.7002C79.401 90.1791 78.5625 88.1554 78.5625 86C78.5625 83.8446 79.401 81.8209 80.9248 80.2998L77.1247 76.4997Z" fill="#CDCDCD"/>
<path d="M73.3219 72.6969L69.5217 68.8967C60.0913 78.3299 60.0913 93.6728 69.5217 103.106L73.3219 99.3031C65.9877 91.9689 65.9877 80.031 73.3219 72.6969Z" fill="#CDCDCD"/>
<path d="M65.7216 65.0966L61.9215 61.2965C48.3012 74.9168 48.3012 97.0833 61.9215 110.706L65.7216 106.906C54.1949 95.3767 54.1949 76.6233 65.7216 65.0966Z" fill="#CDCDCD"/>
</svg>
