<svg width="167" height="323" viewBox="0 0 167 323" fill="none" xmlns="http://www.w3.org/2000/svg">
<path d="M23.4289 272.536C22.1297 272.088 20.6961 271.842 19.3073 271.842C14.3569 271.842 10.4817 275.784 10.4817 280.712C10.4817 285.528 14.2449 289.269 19.0609 289.269C20.1585 289.269 22.4433 289.067 23.4289 288.597L23.6081 282.28C22.6225 283.243 21.5025 283.848 20.0913 283.848C18.2545 283.848 16.6641 282.414 16.6641 280.555C16.6641 278.718 18.1649 277.262 20.0017 277.262C21.3905 277.262 22.6225 278.046 23.6081 278.965L23.4289 272.536ZM33.2905 276.837C29.3705 276.837 26.0777 279.032 26.0777 283.198C26.0777 287.141 29.5721 289.269 33.2905 289.269C37.0089 289.269 40.5033 287.141 40.5033 283.198C40.5033 279.032 37.2105 276.837 33.2905 276.837ZM33.2905 281.362C34.2537 281.362 34.9033 282.146 34.9033 283.109C34.9033 284.05 34.1865 284.744 33.2905 284.744C32.3945 284.744 31.6777 284.05 31.6777 283.109C31.6777 282.146 32.3273 281.362 33.2905 281.362ZM48.9451 277.106H43.3003V289H49.0795V283.198C49.0795 282.504 49.0795 281.518 50.0427 281.518C51.0283 281.518 51.0283 282.504 51.0283 283.198V289H56.8075V281.675C56.8075 279.054 55.6427 276.837 52.6859 276.837C50.8267 276.837 49.9755 277.71 48.8555 279.01H48.7211L48.9451 277.106ZM65.5911 277.106H59.9463V289H65.7255V283.198C65.7255 282.504 65.7255 281.518 66.6887 281.518C67.6743 281.518 67.6743 282.504 67.6743 283.198V289H73.4535V281.675C73.4535 279.054 72.2887 276.837 69.3319 276.837C67.4727 276.837 66.6215 277.71 65.5015 279.01H65.3671L65.5911 277.106ZM90.3459 284.027C90.6371 279.57 87.2995 276.837 83.0659 276.837C79.2803 276.837 76.2339 279.301 76.2339 283.243C76.2339 287.342 79.6611 289.269 83.4019 289.269C86.1347 289.269 89.3379 287.947 90.0995 285.08H84.4771C84.3651 285.64 83.9171 286.066 83.3123 286.066C82.1027 286.066 81.9459 284.99 81.9459 284.027H90.3459ZM81.9459 281.563C81.9459 280.734 82.3715 280.018 83.2451 280.018C84.0739 280.018 84.6563 280.757 84.6563 281.563H81.9459ZM102.447 277.442C101.283 277.061 100.028 276.837 98.8185 276.837C95.2569 276.837 92.6809 279.592 92.6809 283.109C92.6809 287.096 95.4361 289.269 99.2889 289.269C100.297 289.269 101.305 289 102.201 288.709L102.447 283.826C101.775 284.296 101.103 284.744 100.207 284.744C99.2665 284.744 98.5049 283.982 98.5049 283.042C98.5049 281.966 99.2665 281.272 100.319 281.272C101.148 281.272 101.843 281.742 102.447 282.258V277.442ZM112.117 273.275H106.293V277.262L104.882 277.173V281.72L106.293 281.608V289H112.117V281.608L114.043 281.72V277.173L112.117 277.262V273.275ZM116.499 289H122.278V277.106H116.499V289ZM119.388 270.654C117.574 270.654 116.207 271.707 116.207 273.432C116.207 275.381 117.731 276.232 119.388 276.232C121.046 276.232 122.569 275.381 122.569 273.432C122.569 271.707 121.203 270.654 119.388 270.654ZM132.662 276.837C128.742 276.837 125.45 279.032 125.45 283.198C125.45 287.141 128.944 289.269 132.662 289.269C136.381 289.269 139.875 287.141 139.875 283.198C139.875 279.032 136.582 276.837 132.662 276.837ZM132.662 281.362C133.626 281.362 134.275 282.146 134.275 283.109C134.275 284.05 133.558 284.744 132.662 284.744C131.766 284.744 131.05 284.05 131.05 283.109C131.05 282.146 131.699 281.362 132.662 281.362ZM148.317 277.106H142.672V289H148.452V283.198C148.452 282.504 148.452 281.518 149.415 281.518C150.4 281.518 150.4 282.504 150.4 283.198V289H156.18V281.675C156.18 279.054 155.015 276.837 152.058 276.837C150.199 276.837 149.348 277.71 148.228 279.01H148.093L148.317 277.106ZM15.2644 312.027C15.5556 307.57 12.218 304.837 7.98435 304.837C4.19875 304.837 1.15235 307.301 1.15235 311.243C1.15235 315.342 4.57955 317.269 8.32035 317.269C11.0532 317.269 14.2564 315.947 15.018 313.08H9.39555C9.28355 313.64 8.83555 314.066 8.23076 314.066C7.02115 314.066 6.86435 312.99 6.86435 312.027H15.2644ZM6.86435 309.563C6.86435 308.734 7.28996 308.018 8.16355 308.018C8.99235 308.018 9.57476 308.757 9.57476 309.563H6.86435ZM17.129 315.947C18.8538 316.686 20.6906 317.269 22.5722 317.269C25.2602 317.269 28.329 315.992 28.329 312.901C28.329 310.504 26.649 309.787 24.5882 309.451C23.7818 309.317 23.1546 309.272 23.1546 308.69C23.1546 308.264 23.625 308.152 23.9834 308.152C24.9242 308.152 25.9098 308.6 26.649 309.138L28.0602 305.845C26.761 305.128 24.9242 304.837 23.4458 304.837C20.8922 304.837 17.8906 306.024 17.8906 309.003C17.8906 311.243 19.6826 312.027 21.609 312.296C22.0794 312.363 22.7738 312.386 22.7738 313.035C22.7738 313.483 22.3034 313.685 21.9226 313.685C20.937 313.685 19.7722 313.08 18.9658 312.587L18.6074 312.363L17.129 315.947ZM37.4727 301.275H31.6487V305.262L30.2375 305.173V309.72L31.6487 309.608V317H37.4727V309.608L39.3991 309.72V305.173L37.4727 305.262V301.275ZM46.805 310.997C46.805 310.123 47.3874 309.362 48.3058 309.362C49.2242 309.362 49.8514 310.034 49.8514 310.952C49.8514 311.87 49.4034 312.744 48.3058 312.744C47.253 312.744 46.805 311.938 46.805 310.997ZM49.6722 317H55.3394V305.106H49.6722L49.8514 306.517H49.717C48.8658 305.352 47.6786 304.837 46.245 304.837C42.885 304.837 41.0706 308.107 41.0706 311.109C41.0706 313.998 42.8626 317.269 46.0882 317.269C47.7234 317.269 48.6642 316.552 49.717 315.432H49.8514L49.6722 317ZM65.5476 309.362C66.4212 309.362 67.0484 310.168 67.0484 310.997C67.0484 311.803 66.4436 312.744 65.5476 312.744C64.5844 312.744 64.0692 311.938 64.0692 311.042C64.0692 310.168 64.5844 309.362 65.5476 309.362ZM58.4916 317H63.9124L63.8004 315.23H63.9348C64.898 316.44 66.2644 317.269 67.81 317.269C71.0356 317.269 72.738 313.998 72.738 311.154C72.738 308.197 71.1476 304.837 67.7876 304.837C66.4436 304.837 65.01 305.598 64.2036 306.696H64.002L64.2708 303.851V298.834H58.4916V317ZM75.6663 317H81.4455V298.834H75.6663V317ZM85.1426 317H90.9218V305.106H85.1426V317ZM88.0322 298.654C86.2178 298.654 84.8514 299.707 84.8514 301.432C84.8514 303.381 86.3746 304.232 88.0322 304.232C89.6898 304.232 91.213 303.381 91.213 301.432C91.213 299.707 89.8466 298.654 88.0322 298.654ZM93.5112 315.947C95.236 316.686 97.0728 317.269 98.9544 317.269C101.642 317.269 104.711 315.992 104.711 312.901C104.711 310.504 103.031 309.787 100.97 309.451C100.164 309.317 99.5368 309.272 99.5368 308.69C99.5368 308.264 100.007 308.152 100.366 308.152C101.306 308.152 102.292 308.6 103.031 309.138L104.442 305.845C103.143 305.128 101.306 304.837 99.828 304.837C97.2744 304.837 94.2728 306.024 94.2728 309.003C94.2728 311.243 96.0648 312.027 97.9912 312.296C98.4616 312.363 99.156 312.386 99.156 313.035C99.156 313.483 98.6856 313.685 98.3048 313.685C97.3192 313.685 96.1544 313.08 95.348 312.587L94.9896 312.363L93.5112 315.947ZM107.269 317H113.049V310.862C113.049 310.123 113.25 309.451 114.146 309.451C114.975 309.451 115.065 310.235 115.065 310.862V317H120.709V309.698C120.709 307.077 119.657 304.837 116.7 304.837C115.042 304.837 113.945 305.867 112.869 307.144H112.78L113.049 303.851V298.834H107.269V317ZM137.581 312.027C137.873 307.57 134.535 304.837 130.301 304.837C126.516 304.837 123.469 307.301 123.469 311.243C123.469 315.342 126.897 317.269 130.637 317.269C133.37 317.269 136.573 315.947 137.335 313.08H131.713C131.601 313.64 131.153 314.066 130.548 314.066C129.338 314.066 129.181 312.99 129.181 312.027H137.581ZM129.181 309.563C129.181 308.734 129.607 308.018 130.481 308.018C131.309 308.018 131.892 308.757 131.892 309.563H129.181ZM147.174 309.362C148.048 309.362 148.675 310.168 148.675 310.997C148.675 311.803 148.07 312.744 147.174 312.744C146.211 312.744 145.696 311.938 145.696 311.042C145.696 310.168 146.211 309.362 147.174 309.362ZM148.832 317H154.253V298.834H148.473V303.851L148.742 306.696H148.541C147.734 305.598 146.301 304.837 144.957 304.837C141.597 304.837 140.006 308.197 140.006 311.154C140.006 313.998 141.709 317.269 144.934 317.269C146.48 317.269 147.846 316.44 148.809 315.23H148.944L148.832 317ZM164.349 310.549V299.013H158.435V310.549H164.349ZM161.392 311.646C159.757 311.646 158.054 312.699 158.054 314.491C158.054 316.261 159.757 317.269 161.392 317.269C163.027 317.269 164.73 316.261 164.73 314.491C164.73 312.699 163.027 311.646 161.392 311.646Z" fill="#011638"/>
<path d="M50.8 72.2128V63.6333H45.2667V71.9333H39.7333V63.6333C39.7333 62.1061 38.4939 60.8667 36.9667 60.8667H25.9C24.3728 60.8667 23.1333 62.1061 23.1333 63.6333V71.9333H17.6V19.3667H20.3667C21.8939 19.3667 23.1333 18.1272 23.1333 16.6V8.3C23.1333 3.72393 19.4094 0 14.8333 0C10.2573 0 6.53333 3.72393 6.53333 8.3V16.6C6.53333 18.1272 7.7728 19.3667 9.3 19.3667H12.0667V72.2128C5.76143 73.4993 1 79.0879 1 85.7667V152.167C1 159.794 7.20563 166 14.8333 166H48.0333C55.661 166 61.8667 159.794 61.8667 152.167V85.7667C61.8667 79.0879 57.1052 73.4993 50.8 72.2128ZM28.6667 66.4H34.2V71.9333H28.6667V66.4ZM12.0667 8.3C12.0667 6.77557 13.3089 5.53333 14.8333 5.53333C16.3578 5.53333 17.6 6.77557 17.6 8.3V13.8333H12.0667V8.3ZM48.0333 160.467H14.8333C11.6959 160.467 8.99013 158.696 7.5819 156.12L16.0728 151.876C17.0079 151.406 17.6 150.449 17.6 149.4V143.867H45.2667V149.4C45.2667 150.449 45.8587 151.406 46.7966 151.876L55.2875 156.12C53.8765 158.696 51.1707 160.467 48.0333 160.467ZM56.3333 150.457L50.8 147.69V141.1C50.8 139.573 49.5605 138.333 48.0333 138.333H14.8333C13.3061 138.333 12.0667 139.573 12.0667 141.1V147.69L6.53333 150.457V85.7667C6.53333 81.1906 10.2573 77.4667 14.8333 77.4667H25.9H36.9667H48.0333C52.6094 77.4667 56.3333 81.1906 56.3333 85.7667V150.457Z" fill="#CDCDCD"/>
<path d="M48.0334 85.7667H14.8334V91.3H48.0334V85.7667Z" fill="#CDCDCD"/>
<path d="M48.0334 96.8333H14.8334V102.367H48.0334V96.8333Z" fill="#CDCDCD"/>
<path d="M48.0334 107.9H14.8334V113.433H48.0334V107.9Z" fill="#CDCDCD"/>
<path d="M23.1333 127.267H17.6V132.8H23.1333V127.267Z" fill="#CDCDCD"/>
<path d="M34.2 127.267H28.6666V132.8H34.2V127.267Z" fill="#CDCDCD"/>
<path d="M45.2666 127.267H39.7333V132.8H45.2666V127.267Z" fill="#CDCDCD"/>
<path d="M155.933 72.2128V63.6333H150.4V71.9333H144.867V63.6333C144.867 62.1061 143.627 60.8667 142.1 60.8667H131.033C129.506 60.8667 128.267 62.1061 128.267 63.6333V71.9333H122.733V19.3667H125.5C127.027 19.3667 128.267 18.1272 128.267 16.6V8.3C128.267 3.72393 124.543 0 119.967 0C115.391 0 111.667 3.72393 111.667 8.3V16.6C111.667 18.1272 112.906 19.3667 114.433 19.3667H117.2V72.2128C110.895 73.4993 106.133 79.0852 106.133 85.7667V152.167C106.133 159.794 112.339 166 119.967 166H153.167C160.794 166 167 159.794 167 152.167V85.7667C167 79.0879 162.239 73.4993 155.933 72.2128ZM133.8 66.4H139.333V71.9333H133.8V66.4ZM117.2 8.3C117.2 6.77557 118.442 5.53333 119.967 5.53333C121.491 5.53333 122.733 6.77557 122.733 8.3V13.8333H117.2V8.3ZM153.167 160.467H119.967C116.829 160.467 114.123 158.696 112.715 156.12L121.206 151.876C122.141 151.406 122.733 150.449 122.733 149.4V143.867H150.4V149.4C150.4 150.449 150.992 151.406 151.93 151.876L160.421 156.12C159.01 158.696 156.304 160.467 153.167 160.467ZM161.467 150.457L155.933 147.69V141.1C155.933 139.573 154.694 138.333 153.167 138.333H119.967C118.439 138.333 117.2 139.573 117.2 141.1V147.69L111.667 150.457V85.7667C111.667 81.1906 115.391 77.4667 119.967 77.4667H131.033H142.1H153.167C157.743 77.4667 161.467 81.1906 161.467 85.7667V150.457Z" fill="#CDCDCD"/>
<path d="M153.167 85.7667H119.967V91.3H153.167V85.7667Z" fill="#CDCDCD"/>
<path d="M153.167 96.8333H119.967V102.367H153.167V96.8333Z" fill="#CDCDCD"/>
<path d="M153.167 107.9H119.967V113.433H153.167V107.9Z" fill="#CDCDCD"/>
<path d="M128.267 127.267H122.733V132.8H128.267V127.267Z" fill="#CDCDCD"/>
<path d="M139.333 127.267H133.8V132.8H139.333V127.267Z" fill="#CDCDCD"/>
<path d="M150.4 127.267H144.867V132.8H150.4V127.267Z" fill="#CDCDCD"/>
<path d="M34.2 8.29999H28.6666V13.8333H34.2V8.29999Z" fill="#CDCDCD"/>
<path d="M45.2666 8.29999H39.7333V13.8333H45.2666V8.29999Z" fill="#CDCDCD"/>
<path d="M56.3334 8.29999H50.8V13.8333H56.3334V8.29999Z" fill="#CDCDCD"/>
<path d="M67.4 8.29999H61.8667V13.8333H67.4V8.29999Z" fill="#CDCDCD"/>
<path d="M78.4667 8.29999H72.9333V13.8333H78.4667V8.29999Z" fill="#CDCDCD"/>
<path d="M89.5333 8.29999H84V13.8333H89.5333V8.29999Z" fill="#CDCDCD"/>
<path d="M100.6 8.29999H95.0667V13.8333H100.6V8.29999Z" fill="#CDCDCD"/>
<path d="M39.7333 19.3666H34.2V24.9H39.7333V19.3666Z" fill="#CDCDCD"/>
<path d="M50.8001 19.3666H45.2667V24.9H50.8001V19.3666Z" fill="#CDCDCD"/>
<path d="M61.8667 19.3666H56.3334V24.9H61.8667V19.3666Z" fill="#CDCDCD"/>
<path d="M72.9333 19.3666H67.4V24.9H72.9333V19.3666Z" fill="#CDCDCD"/>
<path d="M84 19.3666H78.4667V24.9H84V19.3666Z" fill="#CDCDCD"/>
<path d="M95.0667 19.3666H89.5333V24.9H95.0667V19.3666Z" fill="#CDCDCD"/>
<path d="M106.133 19.3666H100.6V24.9H106.133V19.3666Z" fill="#CDCDCD"/>
</svg>
