<svg width="269" height="374" viewBox="0 0 269 374" fill="none" xmlns="http://www.w3.org/2000/svg">
<path d="M1.617 292H7.7994V286.086H12.3018V281.696H7.7994V279.949H12.929V275.11H1.617V292ZM16.1 292H21.8792V280.106H16.1V292ZM18.9896 273.654C17.1752 273.654 15.8088 274.707 15.8088 276.432C15.8088 278.381 17.332 279.232 18.9896 279.232C20.6472 279.232 22.1704 278.381 22.1704 276.432C22.1704 274.707 20.804 273.654 18.9896 273.654ZM31.0319 280.106H25.3871V292H31.1663V286.198C31.1663 285.504 31.1663 284.518 32.1295 284.518C33.1151 284.518 33.1151 285.504 33.1151 286.198V292H38.8943V284.675C38.8943 282.054 37.7295 279.837 34.7727 279.837C32.9135 279.837 32.0623 280.71 30.9423 282.01H30.8079L31.0319 280.106ZM48.8427 284.362C49.7163 284.362 50.3435 285.168 50.3435 285.997C50.3435 286.803 49.7387 287.744 48.8427 287.744C47.8795 287.744 47.3643 286.938 47.3643 286.042C47.3643 285.168 47.8795 284.362 48.8427 284.362ZM50.5003 292H55.9211V273.834H50.1419V278.851L50.4107 281.696H50.2091C49.4027 280.598 47.9691 279.837 46.6251 279.837C43.2651 279.837 41.6747 283.197 41.6747 286.154C41.6747 288.998 43.3771 292.269 46.6027 292.269C48.1483 292.269 49.5147 291.44 50.4779 290.23H50.6123L50.5003 292ZM59.4317 292H65.2109V280.106H59.4317V292ZM62.3213 273.654C60.5069 273.654 59.1405 274.707 59.1405 276.432C59.1405 278.381 60.6637 279.232 62.3213 279.232C63.9789 279.232 65.5021 278.381 65.5021 276.432C65.5021 274.707 64.1357 273.654 62.3213 273.654ZM74.3636 280.106H68.7188V292H74.498V286.198C74.498 285.504 74.498 284.518 75.4612 284.518C76.4468 284.518 76.4468 285.504 76.4468 286.198V292H82.226V284.675C82.226 282.054 81.0612 279.837 78.1044 279.837C76.2452 279.837 75.394 280.71 74.274 282.01H74.1396L74.3636 280.106ZM90.696 286.064C90.696 285.123 91.3456 284.362 92.2864 284.362C93.2496 284.362 93.7872 285.19 93.7872 286.086C93.7872 286.982 93.3168 287.744 92.3312 287.744C91.3232 287.744 90.696 287.027 90.696 286.064ZM99.1856 280.106H93.5856L93.7424 281.808H93.5856C92.8016 280.554 91.6368 279.837 90.1136 279.837C86.8208 279.837 84.984 283.085 84.984 286.042C84.984 288.998 86.8432 292.269 90.0912 292.269C91.4576 292.269 93.0032 291.597 93.5856 290.298H93.7424L93.6304 291.507C93.496 292.986 92.5552 294.128 90.9872 294.128C89.576 294.128 87.9184 293.613 86.8208 292.672L85.544 296.682L86.1264 296.883C87.8288 297.51 89.3968 297.824 91.2336 297.824C95.3776 297.824 99.1856 295.942 99.1856 291.306V280.106ZM121.96 280.442C120.795 280.061 119.54 279.837 118.331 279.837C114.769 279.837 112.193 282.592 112.193 286.109C112.193 290.096 114.948 292.269 118.801 292.269C119.809 292.269 120.817 292 121.713 291.709L121.96 286.826C121.288 287.296 120.616 287.744 119.72 287.744C118.779 287.744 118.017 286.982 118.017 286.042C118.017 284.966 118.779 284.272 119.832 284.272C120.66 284.272 121.355 284.742 121.96 285.258V280.442ZM131.92 279.837C128 279.837 124.707 282.032 124.707 286.198C124.707 290.141 128.202 292.269 131.92 292.269C135.639 292.269 139.133 290.141 139.133 286.198C139.133 282.032 135.84 279.837 131.92 279.837ZM131.92 284.362C132.883 284.362 133.533 285.146 133.533 286.109C133.533 287.05 132.816 287.744 131.92 287.744C131.024 287.744 130.307 287.05 130.307 286.109C130.307 285.146 130.957 284.362 131.92 284.362ZM147.575 280.106H141.93V292H147.709V286.198C147.709 285.504 147.709 284.518 148.672 284.518C149.658 284.518 149.658 285.504 149.658 286.198V292H155.437V284.675C155.437 282.054 154.272 279.837 151.316 279.837C149.456 279.837 148.605 280.71 147.485 282.01H147.351L147.575 280.106ZM164.221 280.106H158.576V292H164.355V286.198C164.355 285.504 164.355 284.518 165.318 284.518C166.304 284.518 166.304 285.504 166.304 286.198V292H172.083V284.675C172.083 282.054 170.918 279.837 167.962 279.837C166.102 279.837 165.251 280.71 164.131 282.01H163.997L164.221 280.106ZM188.976 287.027C189.267 282.57 185.929 279.837 181.696 279.837C177.91 279.837 174.864 282.301 174.864 286.243C174.864 290.342 178.291 292.269 182.032 292.269C184.764 292.269 187.968 290.947 188.729 288.08H183.107C182.995 288.64 182.547 289.066 181.942 289.066C180.732 289.066 180.576 287.99 180.576 287.027H188.976ZM180.576 284.563C180.576 283.734 181.001 283.018 181.875 283.018C182.704 283.018 183.286 283.757 183.286 284.563H180.576ZM201.077 280.442C199.912 280.061 198.658 279.837 197.448 279.837C193.887 279.837 191.311 282.592 191.311 286.109C191.311 290.096 194.066 292.269 197.919 292.269C198.927 292.269 199.935 292 200.831 291.709L201.077 286.826C200.405 287.296 199.733 287.744 198.837 287.744C197.896 287.744 197.135 286.982 197.135 286.042C197.135 284.966 197.896 284.272 198.949 284.272C199.778 284.272 200.472 284.742 201.077 285.258V280.442ZM210.747 276.275H204.923V280.262L203.511 280.173V284.72L204.923 284.608V292H210.747V284.608L212.673 284.72V280.173L210.747 280.262V276.275ZM215.128 292H220.908V280.106H215.128V292ZM218.018 273.654C216.204 273.654 214.837 274.707 214.837 276.432C214.837 278.381 216.36 279.232 218.018 279.232C219.676 279.232 221.199 278.381 221.199 276.432C221.199 274.707 219.832 273.654 218.018 273.654ZM231.292 279.837C227.372 279.837 224.079 282.032 224.079 286.198C224.079 290.141 227.574 292.269 231.292 292.269C235.011 292.269 238.505 290.141 238.505 286.198C238.505 282.032 235.212 279.837 231.292 279.837ZM231.292 284.362C232.255 284.362 232.905 285.146 232.905 286.109C232.905 287.05 232.188 287.744 231.292 287.744C230.396 287.744 229.679 287.05 229.679 286.109C229.679 285.146 230.329 284.362 231.292 284.362ZM246.947 280.106H241.302V292H247.081V286.198C247.081 285.504 247.081 284.518 248.044 284.518C249.03 284.518 249.03 285.504 249.03 286.198V292H254.809V284.675C254.809 282.054 253.644 279.837 250.688 279.837C248.828 279.837 247.977 280.71 246.857 282.01H246.723L246.947 280.106ZM257.03 290.947C258.754 291.686 260.591 292.269 262.473 292.269C265.161 292.269 268.23 290.992 268.23 287.901C268.23 285.504 266.55 284.787 264.489 284.451C263.682 284.317 263.055 284.272 263.055 283.69C263.055 283.264 263.526 283.152 263.884 283.152C264.825 283.152 265.81 283.6 266.55 284.138L267.961 280.845C266.662 280.128 264.825 279.837 263.346 279.837C260.793 279.837 257.791 281.024 257.791 284.003C257.791 286.243 259.583 287.027 261.51 287.296C261.98 287.363 262.674 287.386 262.674 288.035C262.674 288.483 262.204 288.685 261.823 288.685C260.838 288.685 259.673 288.08 258.866 287.587L258.508 287.363L257.03 290.947ZM79.8652 308.106H74.2204V320H79.9996V314.198C79.9996 313.504 79.9996 312.518 80.9628 312.518C81.9484 312.518 81.9484 313.504 81.9484 314.198V320H87.7276V312.675C87.7276 310.054 86.5628 307.837 83.606 307.837C81.7468 307.837 80.8956 308.71 79.7756 310.01H79.6412L79.8652 308.106ZM104.62 315.027C104.911 310.57 101.574 307.837 97.34 307.837C93.5544 307.837 90.508 310.301 90.508 314.243C90.508 318.342 93.9352 320.269 97.676 320.269C100.409 320.269 103.612 318.947 104.374 316.08H98.7512C98.6392 316.64 98.1912 317.066 97.5864 317.066C96.3768 317.066 96.22 315.99 96.22 315.027H104.62ZM96.22 312.563C96.22 311.734 96.6456 311.018 97.5192 311.018C98.348 311.018 98.9304 311.757 98.9304 312.563H96.22ZM112.734 313.997C112.734 313.123 113.317 312.362 114.235 312.362C115.153 312.362 115.781 313.034 115.781 313.952C115.781 314.87 115.333 315.744 114.235 315.744C113.182 315.744 112.734 314.938 112.734 313.997ZM115.601 320H121.269V308.106H115.601L115.781 309.517H115.646C114.795 308.352 113.608 307.837 112.174 307.837C108.814 307.837 107 311.107 107 314.109C107 316.998 108.792 320.269 112.017 320.269C113.653 320.269 114.593 319.552 115.646 318.432H115.781L115.601 320ZM134.21 307.837C132.261 307.792 131.208 308.128 130.178 309.696H130.043L130.178 308.106H124.398V320H130.178V315.43C130.178 313.952 130.939 313.056 132.44 313.056C133.179 313.056 133.605 313.347 134.21 313.706V307.837ZM143.463 312.362C144.337 312.362 144.964 313.168 144.964 313.997C144.964 314.803 144.359 315.744 143.463 315.744C142.5 315.744 141.985 314.938 141.985 314.042C141.985 313.168 142.5 312.362 143.463 312.362ZM136.407 320H141.828L141.716 318.23H141.851C142.814 319.44 144.18 320.269 145.726 320.269C148.951 320.269 150.654 316.998 150.654 314.154C150.654 311.197 149.063 307.837 145.703 307.837C144.359 307.837 142.926 308.598 142.119 309.696H141.918L142.187 306.851V301.834H136.407V320ZM151.813 308.106L156.897 318.813L153.829 324.906H159.921L167.537 308.106H161.467L160.145 312.765L159.854 314.579H159.697L159.361 312.765L158.04 308.106H151.813ZM170.811 314.646C169.175 314.646 167.473 315.699 167.473 317.491C167.473 319.261 169.175 320.269 170.811 320.269C172.446 320.269 174.148 319.261 174.148 317.491C174.148 315.699 172.446 314.646 170.811 314.646ZM181.025 314.646C179.39 314.646 177.688 315.699 177.688 317.491C177.688 319.261 179.39 320.269 181.025 320.269C182.661 320.269 184.363 319.261 184.363 317.491C184.363 315.699 182.661 314.646 181.025 314.646ZM191.24 314.646C189.605 314.646 187.902 315.699 187.902 317.491C187.902 319.261 189.605 320.269 191.24 320.269C192.875 320.269 194.578 319.261 194.578 317.491C194.578 315.699 192.875 314.646 191.24 314.646Z" fill="#011638"/>
<path d="M110.812 72.5625H159.188V77.9375H110.812V72.5625Z" fill="#CDCDCD"/>
<path d="M110.812 83.3125H159.188V88.6875H110.812V83.3125Z" fill="#CDCDCD"/>
<path d="M116.188 120.938H153.812V94.0625H116.188V120.938ZM121.562 99.4375H148.438V115.562H121.562V99.4375Z" fill="#CDCDCD"/>
<path d="M137.688 153.188H143.062V158.562H137.688V153.188Z" fill="#CDCDCD"/>
<path d="M126.938 153.188H132.312V158.562H126.938V153.188Z" fill="#CDCDCD"/>
<path d="M148.438 153.188H153.812V158.562H148.438V153.188Z" fill="#CDCDCD"/>
<path d="M116.188 153.188H121.562V158.562H116.188V153.188Z" fill="#CDCDCD"/>
<path d="M126.938 142.438H132.312V147.812H126.938V142.438Z" fill="#CDCDCD"/>
<path d="M116.188 142.438H121.562V147.812H116.188V142.438Z" fill="#CDCDCD"/>
<path d="M137.688 142.438H143.062V147.812H137.688V142.438Z" fill="#CDCDCD"/>
<path d="M148.438 142.438H153.812V147.812H148.438V142.438Z" fill="#CDCDCD"/>
<path d="M116.188 131.688H121.562V137.062H116.188V131.688Z" fill="#CDCDCD"/>
<path d="M137.688 131.688H143.062V137.062H137.688V131.688Z" fill="#CDCDCD"/>
<path d="M148.438 131.688H153.812V137.062H148.438V131.688Z" fill="#CDCDCD"/>
<path d="M126.938 131.688H132.312V137.062H126.938V131.688Z" fill="#CDCDCD"/>
<path d="M172.625 72.5625H169.938V69.875C169.938 66.3759 167.683 63.4196 164.562 62.307V59.125C164.562 55.6259 162.308 52.6696 159.188 51.557V10.75C159.188 6.30487 155.57 2.6875 151.125 2.6875C146.68 2.6875 143.062 6.30487 143.062 10.75V51.557C139.942 52.6696 137.688 55.6259 137.688 59.125V61.8125H126.938V53.75C126.938 49.3049 123.32 45.6875 118.875 45.6875H113.5C109.055 45.6875 105.438 49.3049 105.438 53.75V62.307C102.317 63.4196 100.062 66.3759 100.062 69.875V72.5625H97.375C92.9299 72.5625 89.3125 76.1799 89.3125 80.625V91.375C89.3125 95.8201 92.9299 99.4375 97.375 99.4375H100.062V105.275C100.062 107.427 100.901 109.454 102.425 110.975L104.65 113.2C105.153 113.703 105.438 114.393 105.438 115.1V161.25C105.438 165.695 109.055 169.312 113.5 169.312H156.5C160.945 169.312 164.562 165.695 164.562 161.25V115.1C164.562 114.393 164.847 113.7 165.35 113.2L167.575 110.975C169.096 109.454 169.938 107.427 169.938 105.275V99.4375H172.625C177.07 99.4375 180.688 95.8201 180.688 91.375V80.625C180.688 76.1799 177.07 72.5625 172.625 72.5625ZM97.375 94.0625C95.8915 94.0625 94.6875 92.8585 94.6875 91.375V80.625C94.6875 79.1415 95.8915 77.9375 97.375 77.9375H100.062V94.0625H97.375ZM151.125 8.0625C152.609 8.0625 153.812 9.2665 153.812 10.75V51.0625H148.438V10.75C148.438 9.2665 149.641 8.0625 151.125 8.0625ZM143.062 59.125C143.062 57.6415 144.266 56.4375 145.75 56.4375H156.5C157.983 56.4375 159.188 57.6415 159.188 59.125V61.8125H143.062V59.125ZM113.5 51.0625H118.875C120.358 51.0625 121.562 52.2665 121.562 53.75V61.8125H110.812V53.75C110.812 52.2665 112.017 51.0625 113.5 51.0625ZM164.562 105.275C164.562 105.982 164.278 106.675 163.775 107.175L161.55 109.4C160.026 110.921 159.188 112.948 159.188 115.1V161.25C159.188 162.734 157.983 163.938 156.5 163.938H113.5C112.017 163.938 110.812 162.734 110.812 161.25V115.1C110.812 112.948 109.971 110.921 108.45 109.4L106.225 107.175C105.722 106.672 105.438 105.982 105.438 105.275V69.875C105.438 68.3915 106.642 67.1875 108.125 67.1875H161.875C163.358 67.1875 164.562 68.3915 164.562 69.875V105.275ZM175.312 91.375C175.312 92.8585 174.108 94.0625 172.625 94.0625H169.938V77.9375H172.625C174.108 77.9375 175.312 79.1415 175.312 80.625V91.375Z" fill="#CDCDCD"/>
<path d="M192.875 76.4997L189.075 80.2998C190.596 81.8209 191.438 83.8446 191.438 86C191.438 88.1554 190.596 90.1791 189.075 91.7002L192.875 95.5003C195.412 92.966 196.813 89.5905 196.813 86C196.813 82.4095 195.412 79.034 192.875 76.4997Z" fill="#CDCDCD"/>
<path d="M200.478 68.8967L196.678 72.6969C204.012 80.031 204.012 91.9689 196.678 99.3031L200.478 103.103C209.909 93.6701 209.909 78.3299 200.478 68.8967Z" fill="#CDCDCD"/>
<path d="M208.079 61.2965L204.278 65.0966C215.805 76.6233 215.805 95.3794 204.278 106.906L208.079 110.706C221.701 97.0833 221.701 74.9168 208.079 61.2965Z" fill="#CDCDCD"/>
<path d="M77.1247 76.4997C74.5877 79.034 73.1875 82.4095 73.1875 86C73.1875 89.5905 74.5877 92.966 77.1247 95.5003L80.9248 91.7002C79.401 90.1791 78.5625 88.1554 78.5625 86C78.5625 83.8446 79.401 81.8209 80.9248 80.2998L77.1247 76.4997Z" fill="#CDCDCD"/>
<path d="M73.3219 72.6969L69.5217 68.8967C60.0913 78.3299 60.0913 93.6728 69.5217 103.106L73.3219 99.3031C65.9877 91.9689 65.9877 80.031 73.3219 72.6969Z" fill="#CDCDCD"/>
<path d="M65.7216 65.0966L61.9215 61.2965C48.3012 74.9168 48.3012 97.0833 61.9215 110.706L65.7216 106.906C54.1949 95.3767 54.1949 76.6233 65.7216 65.0966Z" fill="#CDCDCD"/>
<path d="M29.8528 363.138H26.9408V365.131L26.2352 365.086V367.36L26.9408 367.304V371H29.8528V367.304L30.816 367.36V365.086L29.8528 365.131V363.138ZM31.6293 371H34.5189V367.931C34.5189 367.562 34.6197 367.226 35.0677 367.226C35.4821 367.226 35.5269 367.618 35.5269 367.931V371H38.3493V367.349C38.3493 366.038 37.8229 364.918 36.3445 364.918C35.5157 364.918 34.9669 365.434 34.4293 366.072H34.3845L34.5189 364.426V361.917H31.6293V371ZM39.875 371H42.7646V365.053H39.875V371ZM41.3198 361.827C40.4126 361.827 39.7294 362.354 39.7294 363.216C39.7294 364.19 40.491 364.616 41.3198 364.616C42.1486 364.616 42.9102 364.19 42.9102 363.216C42.9102 362.354 42.227 361.827 41.3198 361.827ZM43.8353 370.474C44.6977 370.843 45.6161 371.134 46.5569 371.134C47.9009 371.134 49.4353 370.496 49.4353 368.95C49.4353 367.752 48.5953 367.394 47.5649 367.226C47.1617 367.158 46.8481 367.136 46.8481 366.845C46.8481 366.632 47.0833 366.576 47.2625 366.576C47.7329 366.576 48.2257 366.8 48.5953 367.069L49.3009 365.422C48.6513 365.064 47.7329 364.918 46.9937 364.918C45.7169 364.918 44.2161 365.512 44.2161 367.002C44.2161 368.122 45.1121 368.514 46.0753 368.648C46.3105 368.682 46.6577 368.693 46.6577 369.018C46.6577 369.242 46.4225 369.342 46.2321 369.342C45.7393 369.342 45.1569 369.04 44.7537 368.794L44.5745 368.682L43.8353 370.474ZM58.8793 367.181C59.3161 367.181 59.6297 367.584 59.6297 367.998C59.6297 368.402 59.3273 368.872 58.8793 368.872C58.3977 368.872 58.1401 368.469 58.1401 368.021C58.1401 367.584 58.3977 367.181 58.8793 367.181ZM58.1401 365.053H55.3849V373.453H58.2745V371.134L58.1401 370.182H58.2185C58.5433 370.765 59.3273 371.134 59.9769 371.134C61.6009 371.134 62.4745 369.376 62.4745 367.976C62.4745 366.486 61.6681 364.918 59.9993 364.918C59.2489 364.918 58.4649 365.31 58.1401 365.994H58.0505L58.1401 365.053ZM68.5093 364.918C67.5349 364.896 67.0085 365.064 66.4933 365.848H66.4261L66.4933 365.053H63.6037V371H66.4933V368.715C66.4933 367.976 66.8741 367.528 67.6245 367.528C67.9941 367.528 68.2069 367.674 68.5093 367.853V364.918ZM72.8226 364.918C70.8626 364.918 69.2162 366.016 69.2162 368.099C69.2162 370.07 70.9634 371.134 72.8226 371.134C74.6818 371.134 76.429 370.07 76.429 368.099C76.429 366.016 74.7826 364.918 72.8226 364.918ZM72.8226 367.181C73.3042 367.181 73.629 367.573 73.629 368.054C73.629 368.525 73.2706 368.872 72.8226 368.872C72.3746 368.872 72.0162 368.525 72.0162 368.054C72.0162 367.573 72.341 367.181 72.8226 367.181ZM82.2628 365.221C81.6804 365.03 81.0532 364.918 80.4484 364.918C78.6676 364.918 77.3796 366.296 77.3796 368.054C77.3796 370.048 78.7572 371.134 80.6836 371.134C81.1876 371.134 81.6916 371 82.1396 370.854L82.2628 368.413C81.9268 368.648 81.5908 368.872 81.1428 368.872C80.6724 368.872 80.2916 368.491 80.2916 368.021C80.2916 367.483 80.6724 367.136 81.1988 367.136C81.6132 367.136 81.9604 367.371 82.2628 367.629V365.221ZM90.4575 368.514C90.6031 366.285 88.9343 364.918 86.8175 364.918C84.9247 364.918 83.4015 366.15 83.4015 368.122C83.4015 370.171 85.1151 371.134 86.9855 371.134C88.3519 371.134 89.9535 370.474 90.3343 369.04H87.5231C87.4671 369.32 87.2431 369.533 86.9407 369.533C86.3359 369.533 86.2575 368.995 86.2575 368.514H90.4575ZM86.2575 367.282C86.2575 366.867 86.4703 366.509 86.9071 366.509C87.3215 366.509 87.6127 366.878 87.6127 367.282H86.2575ZM91.1658 370.474C92.0282 370.843 92.9466 371.134 93.8874 371.134C95.2314 371.134 96.7658 370.496 96.7658 368.95C96.7658 367.752 95.9258 367.394 94.8954 367.226C94.4922 367.158 94.1786 367.136 94.1786 366.845C94.1786 366.632 94.4138 366.576 94.593 366.576C95.0634 366.576 95.5562 366.8 95.9258 367.069L96.6314 365.422C95.9818 365.064 95.0634 364.918 94.3242 364.918C93.0474 364.918 91.5466 365.512 91.5466 367.002C91.5466 368.122 92.4426 368.514 93.4058 368.648C93.641 368.682 93.9882 368.693 93.9882 369.018C93.9882 369.242 93.753 369.342 93.5626 369.342C93.0698 369.342 92.4874 369.04 92.0842 368.794L91.905 368.682L91.1658 370.474ZM97.3617 370.474C98.2241 370.843 99.1425 371.134 100.083 371.134C101.427 371.134 102.962 370.496 102.962 368.95C102.962 367.752 102.122 367.394 101.091 367.226C100.688 367.158 100.374 367.136 100.374 366.845C100.374 366.632 100.61 366.576 100.789 366.576C101.259 366.576 101.752 366.8 102.122 367.069L102.827 365.422C102.178 365.064 101.259 364.918 100.52 364.918C99.2433 364.918 97.7425 365.512 97.7425 367.002C97.7425 368.122 98.6385 368.514 99.6017 368.648C99.8369 368.682 100.184 368.693 100.184 369.018C100.184 369.242 99.9489 369.342 99.7585 369.342C99.2657 369.342 98.6833 369.04 98.2801 368.794L98.1009 368.682L97.3617 370.474ZM111.7 365.053H108.967V371H111.767V368.054C111.767 367.707 111.767 367.259 112.182 367.259C112.607 367.259 112.607 367.707 112.607 368.054V371H115.407V368.054C115.407 367.707 115.407 367.259 115.822 367.259C116.247 367.259 116.247 367.707 116.247 368.054V371H119.047V367.304C119.047 366.016 118.42 364.918 116.998 364.918C116.079 364.918 115.531 365.355 115.195 366.184H115.127C114.87 365.378 114.276 364.918 113.425 364.918C112.663 364.918 111.935 365.378 111.7 366.106H111.611L111.7 365.053ZM123.11 367.998C123.11 367.562 123.401 367.181 123.86 367.181C124.32 367.181 124.633 367.517 124.633 367.976C124.633 368.435 124.409 368.872 123.86 368.872C123.334 368.872 123.11 368.469 123.11 367.998ZM124.544 371H127.377V365.053H124.544L124.633 365.758H124.566C124.14 365.176 123.547 364.918 122.83 364.918C121.15 364.918 120.243 366.554 120.243 368.054C120.243 369.499 121.139 371.134 122.752 371.134C123.569 371.134 124.04 370.776 124.566 370.216H124.633L124.544 371ZM127.923 365.053L130.465 370.406L128.931 373.453H131.977L135.785 365.053H132.75L132.089 367.382L131.944 368.29H131.865L131.697 367.382L131.037 365.053H127.923ZM144.501 363.138H141.589V365.131L140.884 365.086V367.36L141.589 367.304V371H144.501V367.304L145.465 367.36V365.086L144.501 365.131V363.138ZM148.944 367.998C148.944 367.562 149.235 367.181 149.694 367.181C150.153 367.181 150.467 367.517 150.467 367.976C150.467 368.435 150.243 368.872 149.694 368.872C149.168 368.872 148.944 368.469 148.944 367.998ZM150.377 371H153.211V365.053H150.377L150.467 365.758H150.4C149.974 365.176 149.38 364.918 148.664 364.918C146.984 364.918 146.076 366.554 146.076 368.054C146.076 369.499 146.972 371.134 148.585 371.134C149.403 371.134 149.873 370.776 150.4 370.216H150.467L150.377 371ZM154.585 371H157.475V368.816H157.542L158.752 371H162.156L159.86 367.965L162.044 365.053H158.673L157.777 366.755L157.542 367.259H157.475V361.917H154.585V371ZM169.976 368.514C170.122 366.285 168.453 364.918 166.336 364.918C164.443 364.918 162.92 366.15 162.92 368.122C162.92 370.171 164.634 371.134 166.504 371.134C167.871 371.134 169.472 370.474 169.853 369.04H167.042C166.986 369.32 166.762 369.533 166.459 369.533C165.855 369.533 165.776 368.995 165.776 368.514H169.976ZM165.776 367.282C165.776 366.867 165.989 366.509 166.426 366.509C166.84 366.509 167.131 366.878 167.131 367.282H165.776ZM175.568 370.474C176.43 370.843 177.349 371.134 178.289 371.134C179.633 371.134 181.168 370.496 181.168 368.95C181.168 367.752 180.328 367.394 179.297 367.226C178.894 367.158 178.581 367.136 178.581 366.845C178.581 366.632 178.816 366.576 178.995 366.576C179.465 366.576 179.958 366.8 180.328 367.069L181.033 365.422C180.384 365.064 179.465 364.918 178.726 364.918C177.449 364.918 175.949 365.512 175.949 367.002C175.949 368.122 176.845 368.514 177.808 368.648C178.043 368.682 178.39 368.693 178.39 369.018C178.39 369.242 178.155 369.342 177.965 369.342C177.472 369.342 176.889 369.04 176.486 368.794L176.307 368.682L175.568 370.474ZM185.661 364.918C183.701 364.918 182.055 366.016 182.055 368.099C182.055 370.07 183.802 371.134 185.661 371.134C187.521 371.134 189.268 370.07 189.268 368.099C189.268 366.016 187.621 364.918 185.661 364.918ZM185.661 367.181C186.143 367.181 186.468 367.573 186.468 368.054C186.468 368.525 186.109 368.872 185.661 368.872C185.213 368.872 184.855 368.525 184.855 368.054C184.855 367.573 185.18 367.181 185.661 367.181ZM193.242 365.053H190.509V371H193.309V368.054C193.309 367.707 193.309 367.259 193.724 367.259C194.149 367.259 194.149 367.707 194.149 368.054V371H196.949V368.054C196.949 367.707 196.949 367.259 197.364 367.259C197.789 367.259 197.789 367.707 197.789 368.054V371H200.589V367.304C200.589 366.016 199.962 364.918 198.54 364.918C197.621 364.918 197.073 365.355 196.737 366.184H196.669C196.412 365.378 195.818 364.918 194.967 364.918C194.205 364.918 193.477 365.378 193.242 366.106H193.153L193.242 365.053ZM208.863 368.514C209.009 366.285 207.34 364.918 205.223 364.918C203.331 364.918 201.807 366.15 201.807 368.122C201.807 370.171 203.521 371.134 205.391 371.134C206.758 371.134 208.359 370.474 208.74 369.04H205.929C205.873 369.32 205.649 369.533 205.347 369.533C204.742 369.533 204.663 368.995 204.663 368.514H208.863ZM204.663 367.282C204.663 366.867 204.876 366.509 205.313 366.509C205.727 366.509 206.019 366.878 206.019 367.282H204.663ZM218.207 363.138H215.295V365.131L214.589 365.086V367.36L215.295 367.304V371H218.207V367.304L219.17 367.36V365.086L218.207 365.131V363.138ZM220.174 371H223.064V365.053H220.174V371ZM221.619 361.827C220.712 361.827 220.028 362.354 220.028 363.216C220.028 364.19 220.79 364.616 221.619 364.616C222.448 364.616 223.209 364.19 223.209 363.216C223.209 362.354 222.526 361.827 221.619 361.827ZM227.393 365.053H224.661V371H227.461V368.054C227.461 367.707 227.461 367.259 227.875 367.259C228.301 367.259 228.301 367.707 228.301 368.054V371H231.101V368.054C231.101 367.707 231.101 367.259 231.515 367.259C231.941 367.259 231.941 367.707 231.941 368.054V371H234.741V367.304C234.741 366.016 234.113 364.918 232.691 364.918C231.773 364.918 231.224 365.355 230.888 366.184H230.821C230.563 365.378 229.969 364.918 229.118 364.918C228.357 364.918 227.629 365.378 227.393 366.106H227.304L227.393 365.053ZM243.015 368.514C243.16 366.285 241.491 364.918 239.375 364.918C237.482 364.918 235.959 366.15 235.959 368.122C235.959 370.171 237.672 371.134 239.543 371.134C240.909 371.134 242.511 370.474 242.891 369.04H240.08C240.024 369.32 239.8 369.533 239.498 369.533C238.893 369.533 238.815 368.995 238.815 368.514H243.015ZM238.815 367.282C238.815 366.867 239.027 366.509 239.464 366.509C239.879 366.509 240.17 366.878 240.17 367.282H238.815Z" fill="#CDCDCD"/>
</svg>
