<svg width="200" height="290" viewBox="0 0 200 290" fill="none" xmlns="http://www.w3.org/2000/svg">
<path d="M199.861 62.9611H176.66V249.078H199.861V62.9611Z" fill="#7158E2"/>
<path d="M158.099 132.755H134.898V249.078H158.099V132.755Z" fill="#7158E2"/>
<path d="M31.9346 0.922211H1V249.078H31.9346V173.314L200 24.1865V0.922558L31.9346 0.922211ZM31.9056 135.868V30.9375H150.431C110.923 65.9144 71.4149 100.891 31.9056 135.868Z" fill="#7158E2"/>
<path d="M116.338 176.376H93.1367V249.078H116.338V176.376Z" fill="#7158E2"/>
<path d="M74.5757 203.637H51.3747V249.078H74.5757V203.637Z" fill="#7158E2"/>
<path d="M2.14025 282H10.5883V274.736H15.0683C19.9643 274.736 23.0363 271.664 23.0363 266.736C23.0363 260.752 18.8763 257.872 13.2443 257.872H2.14025V282ZM10.5883 264.464H11.4203C12.8603 264.464 14.6523 264.56 14.6523 266.448C14.6523 268.4 12.9883 268.656 11.4523 268.656H10.5883V264.464ZM38.2215 282H54.3495V274.256H46.9895V257.872H38.2215V282ZM69.4247 282H85.9047V275.408H78.2567V273.04H85.0087V266.768H78.2567V264.464H85.6487V257.872H69.4247V282ZM116.114 257.872L114.45 261.296C114.13 261.936 113.842 262.576 113.682 263.28H113.49C113.298 262.608 113.106 261.936 112.754 261.296L110.962 257.872H101.074L108.658 269.168L100.21 282H110.194L112.882 277.072C113.17 276.528 113.394 275.984 113.554 275.408H113.81C113.906 275.92 114.066 276.4 114.322 276.88L117.074 282H127.058L118.45 269.168L126.002 257.872H116.114ZM155.155 257.872V271.312C155.155 273.2 155.091 274.864 152.755 274.864C150.419 274.864 150.355 273.2 150.355 271.312V257.872H141.587V272.144C141.587 279.184 146.003 282.384 152.755 282.384C159.507 282.384 163.923 279.184 163.923 272.144V257.872H155.155ZM179.361 280.176C182.081 281.552 185.601 282.384 188.641 282.384C193.857 282.384 199.105 279.536 199.105 273.776C199.105 269.68 196.417 267.696 192.705 266.864L190.721 266.416C190.049 266.256 188.961 266.128 188.961 265.232C188.961 264.24 190.081 263.952 190.849 263.952C192.737 263.952 194.433 264.752 195.937 265.776L198.305 259.6C195.937 258.16 193.409 257.488 190.657 257.488C185.409 257.488 180.193 260.688 180.193 266.416C180.193 270.192 183.073 272.208 186.497 272.816L188.257 273.136C189.057 273.296 190.209 273.392 190.209 274.48C190.209 275.568 188.833 275.92 187.969 275.92C185.953 275.92 184.065 274.928 182.497 273.712L182.049 273.36L179.361 280.176Z" fill="#4B4B4B"/>
</svg>
