<svg width="360" height="60" viewBox="0 0 360 60" fill="none" xmlns="http://www.w3.org/2000/svg">
<path d="M82.1403 45H90.5883V37.736H95.0683C99.9643 37.736 103.036 34.664 103.036 29.736C103.036 23.752 98.8763 20.872 93.2443 20.872H82.1403V45ZM90.5883 27.464H91.4203C92.8603 27.464 94.6523 27.56 94.6523 29.448C94.6523 31.4 92.9883 31.656 91.4523 31.656H90.5883V27.464ZM118.221 45H134.35V37.256H126.99V20.872H118.221V45ZM149.425 45H165.905V38.408H158.257V36.04H165.009V29.768H158.257V27.464H165.649V20.872H149.425V45ZM196.114 20.872L194.45 24.296C194.13 24.936 193.842 25.576 193.682 26.28H193.49C193.298 25.608 193.106 24.936 192.754 24.296L190.962 20.872H181.074L188.658 32.168L180.21 45H190.194L192.882 40.072C193.17 39.528 193.394 38.984 193.554 38.408H193.81C193.906 38.92 194.066 39.4 194.322 39.88L197.074 45H207.058L198.45 32.168L206.002 20.872H196.114ZM235.155 20.872V34.312C235.155 36.2 235.091 37.864 232.755 37.864C230.419 37.864 230.355 36.2 230.355 34.312V20.872H221.587V35.144C221.587 42.184 226.003 45.384 232.755 45.384C239.507 45.384 243.923 42.184 243.923 35.144V20.872H235.155ZM259.361 43.176C262.081 44.552 265.601 45.384 268.641 45.384C273.857 45.384 279.105 42.536 279.105 36.776C279.105 32.68 276.417 30.696 272.705 29.864L270.721 29.416C270.049 29.256 268.961 29.128 268.961 28.232C268.961 27.24 270.081 26.952 270.849 26.952C272.737 26.952 274.433 27.752 275.937 28.776L278.305 22.6C275.937 21.16 273.409 20.488 270.657 20.488C265.409 20.488 260.193 23.688 260.193 29.416C260.193 33.192 263.073 35.208 266.497 35.816L268.257 36.136C269.057 36.296 270.209 36.392 270.209 37.48C270.209 38.568 268.833 38.92 267.969 38.92C265.953 38.92 264.065 37.928 262.497 36.712L262.049 36.36L259.361 43.176Z" fill="#4B4B4B"/>
<g clip-path="url(#clip0)">
<path d="M40.0769 26.5479H37.7345V45.9041H40.0769V26.5479Z" fill="#7158E2"/>
<path d="M35.8606 33.8065H33.5183V45.9041H35.8606V33.8065Z" fill="#7158E2"/>
<path d="M23.1231 20.0959H20V45.9041H23.1231V38.0247L40.0909 22.5154V20.096L23.1231 20.0959ZM23.1202 34.1303V23.2175H35.0865C31.0978 26.8551 27.109 30.4927 23.1202 34.1303Z" fill="#7158E2"/>
<path d="M31.6444 38.3431H29.3021V45.9041H31.6444V38.3431Z" fill="#7158E2"/>
<path d="M27.4282 41.1783H25.0858V45.9041H27.4282V41.1783Z" fill="#7158E2"/>
</g>
<defs>
<clipPath id="clip0">
<rect x="20" y="20" width="20.0909" height="26" fill="white"/>
</clipPath>
</defs>
</svg>
