<svg width="240" height="101" viewBox="0 0 240 101" fill="none" xmlns="http://www.w3.org/2000/svg">
<rect width="240" height="101" rx="50.5" fill="#7158E2"/>
<path d="M86.5152 57.7232C88.4192 58.6864 90.8832 59.2688 93.0112 59.2688C96.6624 59.2688 100.336 57.2752 100.336 53.2432C100.336 50.376 98.4544 48.9872 95.856 48.4048L94.4672 48.0912C93.9968 47.9792 93.2352 47.8896 93.2352 47.2624C93.2352 46.568 94.0192 46.3664 94.5568 46.3664C95.8784 46.3664 97.0656 46.9264 98.1184 47.6432L99.776 43.32C98.1184 42.312 96.3488 41.8416 94.4224 41.8416C90.7488 41.8416 87.0976 44.0816 87.0976 48.0912C87.0976 50.7344 89.1136 52.1456 91.5104 52.5712L92.7424 52.7952C93.3024 52.9072 94.1088 52.9744 94.1088 53.736C94.1088 54.4976 93.1456 54.744 92.5408 54.744C91.1296 54.744 89.808 54.0496 88.7104 53.1984L88.3968 52.952L86.5152 57.7232ZM103.048 59H114.584V54.3856H109.231V52.728H113.957V48.3376H109.231V46.7248H114.405V42.1104H103.048V59ZM117.922 59H123.791V53.512C123.791 52.392 123.612 51.2944 123.41 50.1296H123.59L128.988 59H134.857V42.1104H128.988V47.1728C128.988 48.6064 129.257 50.0624 129.503 51.4736H129.324L123.814 42.1104H117.922V59ZM138.487 59H146.26C151.21 59 154.75 55.8192 154.75 50.8016C154.75 44.5968 150.404 42.1104 144.737 42.1104H138.487V59ZM144.625 47.3968H145.006C147.246 47.3968 148.612 48.4048 148.612 50.7792C148.612 52.9968 147.044 53.9376 145.006 53.9376H144.625V47.3968Z" fill="white"/>
</svg>
