<svg width="177" height="13" viewBox="0 0 177 13" fill="none" xmlns="http://www.w3.org/2000/svg">
<path d="M4.28668 2.1376H1.37468V4.1312L0.669076 4.0864V6.36L1.37468 6.304V10H4.28668V6.304L5.24988 6.36V4.0864L4.28668 4.1312V2.1376ZM6.06319 10H8.95279V6.9312C8.95279 6.5616 9.05359 6.2256 9.50159 6.2256C9.91599 6.2256 9.96079 6.6176 9.96079 6.9312V10H12.7832V6.3488C12.7832 5.0384 12.2568 3.9184 10.7784 3.9184C9.94959 3.9184 9.40079 4.4336 8.86319 5.072H8.81839L8.95279 3.4256V0.9168H6.06319V10ZM14.3088 10H17.1984V4.0528H14.3088V10ZM15.7536 0.827199C14.8464 0.827199 14.1632 1.3536 14.1632 2.216C14.1632 3.1904 14.9248 3.616 15.7536 3.616C16.5824 3.616 17.344 3.1904 17.344 2.216C17.344 1.3536 16.6608 0.827199 15.7536 0.827199ZM18.2692 9.4736C19.1316 9.8432 20.05 10.1344 20.9908 10.1344C22.3348 10.1344 23.8692 9.496 23.8692 7.9504C23.8692 6.752 23.0292 6.3936 21.9988 6.2256C21.5956 6.1584 21.282 6.136 21.282 5.8448C21.282 5.632 21.5172 5.576 21.6964 5.576C22.1668 5.576 22.6596 5.8 23.0292 6.0688L23.7348 4.4224C23.0852 4.064 22.1668 3.9184 21.4276 3.9184C20.1508 3.9184 18.65 4.512 18.65 6.0016C18.65 7.1216 19.546 7.5136 20.5092 7.648C20.7444 7.6816 21.0916 7.6928 21.0916 8.0176C21.0916 8.2416 20.8564 8.3424 20.666 8.3424C20.1732 8.3424 19.5908 8.04 19.1876 7.7936L19.0084 7.6816L18.2692 9.4736ZM32.6076 4.0528H29.8748V10H32.6748V7.0544C32.6748 6.7072 32.6748 6.2592 33.0892 6.2592C33.5148 6.2592 33.5148 6.7072 33.5148 7.0544V10H36.3148V7.0544C36.3148 6.7072 36.3148 6.2592 36.7292 6.2592C37.1548 6.2592 37.1548 6.7072 37.1548 7.0544V10H39.9548V6.304C39.9548 5.016 39.3276 3.9184 37.9052 3.9184C36.9868 3.9184 36.438 4.3552 36.102 5.184H36.0348C35.7772 4.3776 35.1836 3.9184 34.3324 3.9184C33.5708 3.9184 32.8428 4.3776 32.6076 5.1056H32.518L32.6076 4.0528ZM44.0175 6.9984C44.0175 6.5616 44.3087 6.1808 44.7679 6.1808C45.2271 6.1808 45.5407 6.5168 45.5407 6.976C45.5407 7.4352 45.3167 7.872 44.7679 7.872C44.2415 7.872 44.0175 7.4688 44.0175 6.9984ZM45.4511 10H48.2847V4.0528H45.4511L45.5407 4.7584H45.4735C45.0479 4.176 44.4543 3.9184 43.7375 3.9184C42.0575 3.9184 41.1503 5.5536 41.1503 7.0544C41.1503 8.4992 42.0463 10.1344 43.6591 10.1344C44.4767 10.1344 44.9471 9.776 45.4735 9.216H45.5407L45.4511 10ZM48.8305 4.0528L51.3729 9.4064L49.8385 12.4528H52.8849L56.6929 4.0528H53.6577L52.9969 6.3824L52.8513 7.2896H52.7729L52.6049 6.3824L51.9441 4.0528H48.8305ZM65.4089 2.1376H62.4969V4.1312L61.7913 4.0864V6.36L62.4969 6.304V10H65.4089V6.304L66.3721 6.36V4.0864L65.4089 4.1312V2.1376ZM69.851 6.9984C69.851 6.5616 70.1422 6.1808 70.6014 6.1808C71.0606 6.1808 71.3742 6.5168 71.3742 6.976C71.3742 7.4352 71.1502 7.872 70.6014 7.872C70.075 7.872 69.851 7.4688 69.851 6.9984ZM71.2846 10H74.1182V4.0528H71.2846L71.3742 4.7584H71.307C70.8814 4.176 70.2878 3.9184 69.571 3.9184C67.891 3.9184 66.9838 5.5536 66.9838 7.0544C66.9838 8.4992 67.8798 10.1344 69.4926 10.1344C70.3102 10.1344 70.7806 9.776 71.307 9.216H71.3742L71.2846 10ZM75.4928 10H78.3824V7.816H78.4496L79.6592 10H83.064L80.768 6.9648L82.952 4.0528H79.5808L78.6848 5.7552L78.4496 6.2592H78.3824V0.9168H75.4928V10ZM90.8837 7.5136C91.0293 5.2848 89.3605 3.9184 87.2437 3.9184C85.3509 3.9184 83.8277 5.1504 83.8277 7.1216C83.8277 9.1712 85.5413 10.1344 87.4117 10.1344C88.7781 10.1344 90.3797 9.4736 90.7605 8.04H87.9493C87.8933 8.32 87.6693 8.5328 87.3669 8.5328C86.7621 8.5328 86.6837 7.9952 86.6837 7.5136H90.8837ZM86.6837 6.2816C86.6837 5.8672 86.8965 5.5088 87.3333 5.5088C87.7477 5.5088 88.0389 5.8784 88.0389 6.2816H86.6837ZM97.2146 4.1536L96.4306 4.0528V6.3712L97.2146 6.2928V10H100.104V6.2928L101.034 6.3712V4.0528L100.059 4.176V3.952C100.059 3.56 100.171 3.1568 100.664 3.1568C100.799 3.1568 100.911 3.2016 101.056 3.2576V0.9616C100.631 0.8944 100.216 0.827199 99.7906 0.827199C97.9986 0.827199 97.2146 1.7904 97.2146 3.5264V4.1536ZM108.848 7.5136C108.993 5.2848 107.325 3.9184 105.208 3.9184C103.315 3.9184 101.792 5.1504 101.792 7.1216C101.792 9.1712 103.505 10.1344 105.376 10.1344C106.742 10.1344 108.344 9.4736 108.725 8.04H105.913C105.857 8.32 105.633 8.5328 105.331 8.5328C104.726 8.5328 104.648 7.9952 104.648 7.5136H108.848ZM104.648 6.2816C104.648 5.8672 104.861 5.5088 105.297 5.5088C105.712 5.5088 106.003 5.8784 106.003 6.2816H104.648ZM109.287 4.0528L111.695 10H114.059L114.607 7.984L114.753 7.3568H114.831L115.481 10H117.811L120.252 4.0528H117.217L116.702 6.3712L116.556 7.3568H116.489L115.716 4.0528H113.823L113.252 6.3712L113.107 7.3568H113.017L112.334 4.0528H109.287ZM128.554 4.0528H125.821V10H128.621V7.0544C128.621 6.7072 128.621 6.2592 129.036 6.2592C129.461 6.2592 129.461 6.7072 129.461 7.0544V10H132.261V7.0544C132.261 6.7072 132.261 6.2592 132.676 6.2592C133.101 6.2592 133.101 6.7072 133.101 7.0544V10H135.901V6.304C135.901 5.016 135.274 3.9184 133.852 3.9184C132.933 3.9184 132.384 4.3552 132.048 5.184H131.981C131.724 4.3776 131.13 3.9184 130.279 3.9184C129.517 3.9184 128.789 4.3776 128.554 5.1056H128.464L128.554 4.0528ZM137.489 10H140.378V4.0528H137.489V10ZM138.934 0.827199C138.026 0.827199 137.343 1.3536 137.343 2.216C137.343 3.1904 138.105 3.616 138.934 3.616C139.762 3.616 140.524 3.1904 140.524 2.216C140.524 1.3536 139.841 0.827199 138.934 0.827199ZM144.731 4.0528H141.908V10H144.798V7.0992C144.798 6.752 144.798 6.2592 145.279 6.2592C145.772 6.2592 145.772 6.752 145.772 7.0992V10H148.662V6.3376C148.662 5.0272 148.079 3.9184 146.601 3.9184C145.671 3.9184 145.246 4.3552 144.686 5.0048H144.619L144.731 4.0528ZM149.996 4.0528V7.4128C149.996 9.2944 151.631 10.1344 153.356 10.1344C155.081 10.1344 156.716 9.2944 156.716 7.4128V4.0528H153.849V7.1216C153.849 7.4688 153.826 7.8384 153.356 7.8384C152.886 7.8384 152.863 7.4688 152.863 7.1216V4.0528H149.996ZM161.333 2.1376H158.421V4.1312L157.716 4.0864V6.36L158.421 6.304V10H161.333V6.304L162.297 6.36V4.0864L161.333 4.1312V2.1376ZM169.987 7.5136C170.132 5.2848 168.464 3.9184 166.347 3.9184C164.454 3.9184 162.931 5.1504 162.931 7.1216C162.931 9.1712 164.644 10.1344 166.515 10.1344C167.881 10.1344 169.483 9.4736 169.864 8.04H167.052C166.996 8.32 166.772 8.5328 166.47 8.5328C165.865 8.5328 165.787 7.9952 165.787 7.5136H169.987ZM165.787 6.2816C165.787 5.8672 166 5.5088 166.436 5.5088C166.851 5.5088 167.142 5.8784 167.142 6.2816H165.787ZM170.695 9.4736C171.557 9.8432 172.476 10.1344 173.417 10.1344C174.761 10.1344 176.295 9.496 176.295 7.9504C176.295 6.752 175.455 6.3936 174.425 6.2256C174.021 6.1584 173.708 6.136 173.708 5.8448C173.708 5.632 173.943 5.576 174.122 5.576C174.593 5.576 175.085 5.8 175.455 6.0688L176.161 4.4224C175.511 4.064 174.593 3.9184 173.853 3.9184C172.577 3.9184 171.076 4.512 171.076 6.0016C171.076 7.1216 171.972 7.5136 172.935 7.648C173.17 7.6816 173.517 7.6928 173.517 8.0176C173.517 8.2416 173.282 8.3424 173.092 8.3424C172.599 8.3424 172.017 8.04 171.613 7.7936L171.434 7.6816L170.695 9.4736Z" fill="#CDCDCD"/>
</svg>
