<svg width="156" height="11" viewBox="0 0 156 11" fill="none" xmlns="http://www.w3.org/2000/svg">
<path d="M5.24817 4.2208C4.66577 4.0304 4.03857 3.9184 3.43377 3.9184C1.65297 3.9184 0.364969 5.296 0.364969 7.0544C0.364969 9.048 1.74257 10.1344 3.66897 10.1344C4.17297 10.1344 4.67697 10 5.12497 9.8544L5.24817 7.4128C4.91217 7.648 4.57617 7.872 4.12817 7.872C3.65777 7.872 3.27697 7.4912 3.27697 7.0208C3.27697 6.4832 3.65777 6.136 4.18417 6.136C4.59857 6.136 4.94577 6.3712 5.24817 6.6288V4.2208ZM10.0045 3.9184C8.04449 3.9184 6.39809 5.016 6.39809 7.0992C6.39809 9.0704 8.14529 10.1344 10.0045 10.1344C11.8637 10.1344 13.6109 9.0704 13.6109 7.0992C13.6109 5.016 11.9645 3.9184 10.0045 3.9184ZM10.0045 6.1808C10.4861 6.1808 10.8109 6.5728 10.8109 7.0544C10.8109 7.5248 10.4525 7.872 10.0045 7.872C9.55649 7.872 9.19809 7.5248 9.19809 7.0544C9.19809 6.5728 9.52289 6.1808 10.0045 6.1808ZM17.6078 4.0528H14.7854V10H17.675V7.0992C17.675 6.752 17.675 6.2592 18.1566 6.2592C18.6494 6.2592 18.6494 6.752 18.6494 7.0992V10H21.539V6.3376C21.539 5.0272 20.9566 3.9184 19.4782 3.9184C18.5486 3.9184 18.123 4.3552 17.563 5.0048H17.4958L17.6078 4.0528ZM25.7068 4.0528H22.8844V10H25.774V7.0992C25.774 6.752 25.774 6.2592 26.2556 6.2592C26.7484 6.2592 26.7484 6.752 26.7484 7.0992V10H29.638V6.3376C29.638 5.0272 29.0556 3.9184 27.5772 3.9184C26.6476 3.9184 26.222 4.3552 25.662 5.0048H25.5948L25.7068 4.0528ZM37.8602 7.5136C38.0058 5.2848 36.337 3.9184 34.2202 3.9184C32.3274 3.9184 30.8042 5.1504 30.8042 7.1216C30.8042 9.1712 32.5178 10.1344 34.3882 10.1344C35.7546 10.1344 37.3562 9.4736 37.737 8.04H34.9258C34.8698 8.32 34.6458 8.5328 34.3434 8.5328C33.7386 8.5328 33.6602 7.9952 33.6602 7.5136H37.8602ZM33.6602 6.2816C33.6602 5.8672 33.873 5.5088 34.3098 5.5088C34.7242 5.5088 35.0154 5.8784 35.0154 6.2816H33.6602ZM43.6869 4.2208C43.1045 4.0304 42.4773 3.9184 41.8725 3.9184C40.0917 3.9184 38.8037 5.296 38.8037 7.0544C38.8037 9.048 40.1813 10.1344 42.1077 10.1344C42.6117 10.1344 43.1157 10 43.5637 9.8544L43.6869 7.4128C43.3509 7.648 43.0149 7.872 42.5669 7.872C42.0965 7.872 41.7157 7.4912 41.7157 7.0208C41.7157 6.4832 42.0965 6.136 42.6229 6.136C43.0373 6.136 43.3845 6.3712 43.6869 6.6288V4.2208ZM48.2976 2.1376H45.3856V4.1312L44.68 4.0864V6.36L45.3856 6.304V10H48.2976V6.304L49.2608 6.36V4.0864L48.2976 4.1312V2.1376ZM50.2646 10H53.1542V4.0528H50.2646V10ZM51.7094 0.827199C50.8022 0.827199 50.119 1.3536 50.119 2.216C50.119 3.1904 50.8806 3.616 51.7094 3.616C52.5382 3.616 53.2998 3.1904 53.2998 2.216C53.2998 1.3536 52.6166 0.827199 51.7094 0.827199ZM58.1225 3.9184C56.1625 3.9184 54.5161 5.016 54.5161 7.0992C54.5161 9.0704 56.2633 10.1344 58.1225 10.1344C59.9817 10.1344 61.7289 9.0704 61.7289 7.0992C61.7289 5.016 60.0825 3.9184 58.1225 3.9184ZM58.1225 6.1808C58.6041 6.1808 58.9289 6.5728 58.9289 7.0544C58.9289 7.5248 58.5705 7.872 58.1225 7.872C57.6745 7.872 57.3161 7.5248 57.3161 7.0544C57.3161 6.5728 57.6409 6.1808 58.1225 6.1808ZM65.7258 4.0528H62.9034V10H65.793V7.0992C65.793 6.752 65.793 6.2592 66.2746 6.2592C66.7674 6.2592 66.7674 6.752 66.7674 7.0992V10H69.657V6.3376C69.657 5.0272 69.0746 3.9184 67.5962 3.9184C66.6666 3.9184 66.241 4.3552 65.681 5.0048H65.6138L65.7258 4.0528ZM82.7626 7.5136C82.9082 5.2848 81.2394 3.9184 79.1226 3.9184C77.2298 3.9184 75.7066 5.1504 75.7066 7.1216C75.7066 9.1712 77.4202 10.1344 79.2906 10.1344C80.657 10.1344 82.2586 9.4736 82.6394 8.04H79.8282C79.7722 8.32 79.5482 8.5328 79.2458 8.5328C78.641 8.5328 78.5626 7.9952 78.5626 7.5136H82.7626ZM78.5626 6.2816C78.5626 5.8672 78.7754 5.5088 79.2122 5.5088C79.6266 5.5088 79.9178 5.8784 79.9178 6.2816H78.5626ZM83.4709 9.4736C84.3333 9.8432 85.2517 10.1344 86.1925 10.1344C87.5365 10.1344 89.0709 9.496 89.0709 7.9504C89.0709 6.752 88.2309 6.3936 87.2005 6.2256C86.7973 6.1584 86.4837 6.136 86.4837 5.8448C86.4837 5.632 86.7189 5.576 86.8981 5.576C87.3685 5.576 87.8613 5.8 88.2309 6.0688L88.9365 4.4224C88.2869 4.064 87.3685 3.9184 86.6293 3.9184C85.3525 3.9184 83.8517 4.512 83.8517 6.0016C83.8517 7.1216 84.7477 7.5136 85.7109 7.648C85.9461 7.6816 86.2933 7.6928 86.2933 8.0176C86.2933 8.2416 86.0581 8.3424 85.8677 8.3424C85.3749 8.3424 84.7925 8.04 84.3893 7.7936L84.2101 7.6816L83.4709 9.4736ZM93.4188 2.1376H90.5068V4.1312L89.8012 4.0864V6.36L90.5068 6.304V10H93.4188V6.304L94.382 6.36V4.0864L93.4188 4.1312V2.1376ZM97.8609 6.9984C97.8609 6.5616 98.1521 6.1808 98.6113 6.1808C99.0705 6.1808 99.3841 6.5168 99.3841 6.976C99.3841 7.4352 99.1601 7.872 98.6113 7.872C98.0849 7.872 97.8609 7.4688 97.8609 6.9984ZM99.2945 10H102.128V4.0528H99.2945L99.3841 4.7584H99.3169C98.8913 4.176 98.2977 3.9184 97.5809 3.9184C95.9009 3.9184 94.9937 5.5536 94.9937 7.0544C94.9937 8.4992 95.8897 10.1344 97.5025 10.1344C98.3201 10.1344 98.7905 9.776 99.3169 9.216H99.3841L99.2945 10ZM107.008 6.1808C107.445 6.1808 107.759 6.584 107.759 6.9984C107.759 7.4016 107.456 7.872 107.008 7.872C106.527 7.872 106.269 7.4688 106.269 7.0208C106.269 6.584 106.527 6.1808 107.008 6.1808ZM103.48 10H106.191L106.135 9.1152H106.202C106.683 9.72 107.367 10.1344 108.139 10.1344C109.752 10.1344 110.603 8.4992 110.603 7.0768C110.603 5.5984 109.808 3.9184 108.128 3.9184C107.456 3.9184 106.739 4.2992 106.336 4.848H106.235L106.37 3.4256V0.9168H103.48V10ZM111.844 10H114.733V0.9168H111.844V10ZM116.358 10H119.247V4.0528H116.358V10ZM117.802 0.827199C116.895 0.827199 116.212 1.3536 116.212 2.216C116.212 3.1904 116.974 3.616 117.802 3.616C118.631 3.616 119.393 3.1904 119.393 2.216C119.393 1.3536 118.71 0.827199 117.802 0.827199ZM120.318 9.4736C121.18 9.8432 122.099 10.1344 123.04 10.1344C124.384 10.1344 125.918 9.496 125.918 7.9504C125.918 6.752 125.078 6.3936 124.048 6.2256C123.644 6.1584 123.331 6.136 123.331 5.8448C123.331 5.632 123.566 5.576 123.745 5.576C124.216 5.576 124.708 5.8 125.078 6.0688L125.784 4.4224C125.134 4.064 124.216 3.9184 123.476 3.9184C122.2 3.9184 120.699 4.512 120.699 6.0016C120.699 7.1216 121.595 7.5136 122.558 7.648C122.793 7.6816 123.14 7.6928 123.14 8.0176C123.14 8.2416 122.905 8.3424 122.715 8.3424C122.222 8.3424 121.64 8.04 121.236 7.7936L121.057 7.6816L120.318 9.4736ZM126.973 10H129.863V6.9312C129.863 6.5616 129.963 6.2256 130.411 6.2256C130.826 6.2256 130.871 6.6176 130.871 6.9312V10H133.693V6.3488C133.693 5.0384 133.167 3.9184 131.688 3.9184C130.859 3.9184 130.311 4.4336 129.773 5.072H129.728L129.863 3.4256V0.9168H126.973V10ZM141.905 7.5136C142.051 5.2848 140.382 3.9184 138.265 3.9184C136.372 3.9184 134.849 5.1504 134.849 7.1216C134.849 9.1712 136.563 10.1344 138.433 10.1344C139.8 10.1344 141.401 9.4736 141.782 8.04H138.971C138.915 8.32 138.691 8.5328 138.388 8.5328C137.784 8.5328 137.705 7.9952 137.705 7.5136H141.905ZM137.705 6.2816C137.705 5.8672 137.918 5.5088 138.355 5.5088C138.769 5.5088 139.06 5.8784 139.06 6.2816H137.705ZM146.477 6.1808C146.914 6.1808 147.228 6.584 147.228 6.9984C147.228 7.4016 146.925 7.872 146.477 7.872C145.996 7.872 145.738 7.4688 145.738 7.0208C145.738 6.584 145.996 6.1808 146.477 6.1808ZM147.306 10H150.017V0.9168H147.127V3.4256L147.261 4.848H147.161C146.757 4.2992 146.041 3.9184 145.369 3.9184C143.689 3.9184 142.893 5.5984 142.893 7.0768C142.893 8.4992 143.745 10.1344 145.357 10.1344C146.13 10.1344 146.813 9.72 147.295 9.1152H147.362L147.306 10ZM154.841 6.7744V1.0064H151.884V6.7744H154.841ZM153.362 7.3232C152.545 7.3232 151.694 7.8496 151.694 8.7456C151.694 9.6304 152.545 10.1344 153.362 10.1344C154.18 10.1344 155.031 9.6304 155.031 8.7456C155.031 7.8496 154.18 7.3232 153.362 7.3232Z" fill="#CDCDCD"/>
</svg>
