<svg width="155" height="11" viewBox="0 0 155 11" fill="none" xmlns="http://www.w3.org/2000/svg">
<path d="M0.9328 4.0528L3.5424 10H6.1632L8.7504 4.0528H5.648L5.032 6.136L4.8864 6.864H4.808L4.0352 4.0528H0.9328ZM9.65252 10H12.5421V4.0528H9.65252V10ZM11.0973 0.827199C10.1901 0.827199 9.50692 1.3536 9.50692 2.216C9.50692 3.1904 10.2685 3.616 11.0973 3.616C11.9261 3.616 12.6877 3.1904 12.6877 2.216C12.6877 1.3536 12.0045 0.827199 11.0973 0.827199ZM16.7377 6.9984C16.7377 6.5616 17.0289 6.1808 17.4881 6.1808C17.9473 6.1808 18.2609 6.5168 18.2609 6.976C18.2609 7.4352 18.0369 7.872 17.4881 7.872C16.9617 7.872 16.7377 7.4688 16.7377 6.9984ZM18.1713 10H21.0049V4.0528H18.1713L18.2609 4.7584H18.1937C17.7681 4.176 17.1745 3.9184 16.4577 3.9184C14.7777 3.9184 13.8705 5.5536 13.8705 7.0544C13.8705 8.4992 14.7665 10.1344 16.3793 10.1344C17.1969 10.1344 17.6673 9.776 18.1937 9.216H18.2609L18.1713 10ZM30.7684 6.1808C31.2052 6.1808 31.5188 6.584 31.5188 6.9984C31.5188 7.4016 31.2164 7.872 30.7684 7.872C30.2868 7.872 30.0292 7.4688 30.0292 7.0208C30.0292 6.584 30.2868 6.1808 30.7684 6.1808ZM27.2404 10H29.9508L29.8948 9.1152H29.962C30.4436 9.72 31.1268 10.1344 31.8996 10.1344C33.5124 10.1344 34.3636 8.4992 34.3636 7.0768C34.3636 5.5984 33.5684 3.9184 31.8884 3.9184C31.2164 3.9184 30.4996 4.2992 30.0964 4.848H29.9956L30.13 3.4256V0.9168H27.2404V10ZM35.6037 10H38.4933V0.9168H35.6037V10ZM39.9162 4.0528V7.4128C39.9162 9.2944 41.5514 10.1344 43.2762 10.1344C45.001 10.1344 46.6362 9.2944 46.6362 7.4128V4.0528H43.769V7.1216C43.769 7.4688 43.7466 7.8384 43.2762 7.8384C42.8058 7.8384 42.7834 7.4688 42.7834 7.1216V4.0528H39.9162ZM54.8376 7.5136C54.9832 5.2848 53.3144 3.9184 51.1976 3.9184C49.3048 3.9184 47.7816 5.1504 47.7816 7.1216C47.7816 9.1712 49.4952 10.1344 51.3656 10.1344C52.732 10.1344 54.3336 9.4736 54.7144 8.04H51.9032C51.8472 8.32 51.6232 8.5328 51.3208 8.5328C50.716 8.5328 50.6376 7.9952 50.6376 7.5136H54.8376ZM50.6376 6.2816C50.6376 5.8672 50.8504 5.5088 51.2872 5.5088C51.7016 5.5088 51.9928 5.8784 51.9928 6.2816H50.6376ZM59.2979 2.1376H56.3859V4.1312L55.6803 4.0864V6.36L56.3859 6.304V10H59.2979V6.304L60.2611 6.36V4.0864L59.2979 4.1312V2.1376ZM64.5128 3.9184C62.5528 3.9184 60.9064 5.016 60.9064 7.0992C60.9064 9.0704 62.6536 10.1344 64.5128 10.1344C66.372 10.1344 68.1192 9.0704 68.1192 7.0992C68.1192 5.016 66.4728 3.9184 64.5128 3.9184ZM64.5128 6.1808C64.9944 6.1808 65.3192 6.5728 65.3192 7.0544C65.3192 7.5248 64.9608 7.872 64.5128 7.872C64.0648 7.872 63.7064 7.5248 63.7064 7.0544C63.7064 6.5728 64.0312 6.1808 64.5128 6.1808ZM72.7321 3.9184C70.7721 3.9184 69.1257 5.016 69.1257 7.0992C69.1257 9.0704 70.8729 10.1344 72.7321 10.1344C74.5913 10.1344 76.3385 9.0704 76.3385 7.0992C76.3385 5.016 74.6921 3.9184 72.7321 3.9184ZM72.7321 6.1808C73.2137 6.1808 73.5385 6.5728 73.5385 7.0544C73.5385 7.5248 73.1801 7.872 72.7321 7.872C72.2841 7.872 71.9257 7.5248 71.9257 7.0544C71.9257 6.5728 72.2505 6.1808 72.7321 6.1808ZM80.8059 2.1376H77.8939V4.1312L77.1883 4.0864V6.36L77.8939 6.304V10H80.8059V6.304L81.7691 6.36V4.0864L80.8059 4.1312V2.1376ZM82.5824 10H85.472V6.9312C85.472 6.5616 85.5728 6.2256 86.0208 6.2256C86.4352 6.2256 86.48 6.6176 86.48 6.9312V10H89.3024V6.3488C89.3024 5.0384 88.776 3.9184 87.2976 3.9184C86.4688 3.9184 85.92 4.4336 85.3824 5.072H85.3376L85.472 3.4256V0.9168H82.5824V10ZM98.1866 6.9984C98.1866 6.5616 98.4778 6.1808 98.937 6.1808C99.3962 6.1808 99.7098 6.5168 99.7098 6.976C99.7098 7.4352 99.4858 7.872 98.937 7.872C98.4106 7.872 98.1866 7.4688 98.1866 6.9984ZM99.6202 10H102.454V4.0528H99.6202L99.7098 4.7584H99.6426C99.217 4.176 98.6234 3.9184 97.9066 3.9184C96.2266 3.9184 95.3194 5.5536 95.3194 7.0544C95.3194 8.4992 96.2154 10.1344 97.8282 10.1344C98.6458 10.1344 99.1162 9.776 99.6426 9.216H99.7098L99.6202 10ZM106.628 4.0528H103.806V10H106.696V7.0992C106.696 6.752 106.696 6.2592 107.177 6.2592C107.67 6.2592 107.67 6.752 107.67 7.0992V10H110.56V6.3376C110.56 5.0272 109.977 3.9184 108.499 3.9184C107.569 3.9184 107.144 4.3552 106.584 5.0048H106.516L106.628 4.0528ZM115.31 6.1808C115.747 6.1808 116.06 6.584 116.06 6.9984C116.06 7.4016 115.758 7.872 115.31 7.872C114.828 7.872 114.571 7.4688 114.571 7.0208C114.571 6.584 114.828 6.1808 115.31 6.1808ZM116.139 10H118.849V0.9168H115.959V3.4256L116.094 4.848H115.993C115.59 4.2992 114.873 3.9184 114.201 3.9184C112.521 3.9184 111.726 5.5984 111.726 7.0768C111.726 8.4992 112.577 10.1344 114.19 10.1344C114.963 10.1344 115.646 9.72 116.127 9.1152H116.195L116.139 10ZM124.345 4.0528L126.753 10H129.116L129.665 7.984L129.811 7.3568H129.889L130.539 10H132.868L135.31 4.0528H132.275L131.76 6.3712L131.614 7.3568H131.547L130.774 4.0528H128.881L128.31 6.3712L128.164 7.3568H128.075L127.392 4.0528H124.345ZM136.119 10H139.008V4.0528H136.119V10ZM137.564 0.827199C136.656 0.827199 135.973 1.3536 135.973 2.216C135.973 3.1904 136.735 3.616 137.564 3.616C138.392 3.616 139.154 3.1904 139.154 2.216C139.154 1.3536 138.471 0.827199 137.564 0.827199ZM140.695 8.152H144.694V5.688H140.695V8.152ZM146.478 4.1536L145.694 4.0528V6.3712L146.478 6.2928V10H149.368V6.2928L150.298 6.3712V4.0528L149.323 4.176V3.952C149.323 3.56 149.435 3.1568 149.928 3.1568C150.062 3.1568 150.174 3.2016 150.32 3.2576V0.9616C149.894 0.8944 149.48 0.827199 149.054 0.827199C147.262 0.827199 146.478 1.7904 146.478 3.5264V4.1536ZM151.425 10H154.315V4.0528H151.425V10ZM152.87 0.827199C151.963 0.827199 151.28 1.3536 151.28 2.216C151.28 3.1904 152.041 3.616 152.87 3.616C153.699 3.616 154.46 3.1904 154.46 2.216C154.46 1.3536 153.777 0.827199 152.87 0.827199Z" fill="#CDCDCD"/>
</svg>
