<svg width="172" height="172" viewBox="0 0 172 172" fill="none" xmlns="http://www.w3.org/2000/svg">
<path d="M61.8125 72.5625H110.188V77.9375H61.8125V72.5625Z" fill="#CDCDCD"/>
<path d="M61.8125 83.3125H110.188V88.6875H61.8125V83.3125Z" fill="#CDCDCD"/>
<path d="M67.1875 120.938H104.812V94.0625H67.1875V120.938ZM72.5625 99.4375H99.4375V115.562H72.5625V99.4375Z" fill="#CDCDCD"/>
<path d="M88.6875 153.188H94.0625V158.562H88.6875V153.188Z" fill="#CDCDCD"/>
<path d="M77.9375 153.188H83.3125V158.562H77.9375V153.188Z" fill="#CDCDCD"/>
<path d="M99.4375 153.188H104.812V158.562H99.4375V153.188Z" fill="#CDCDCD"/>
<path d="M67.1875 153.188H72.5625V158.562H67.1875V153.188Z" fill="#CDCDCD"/>
<path d="M77.9375 142.438H83.3125V147.812H77.9375V142.438Z" fill="#CDCDCD"/>
<path d="M67.1875 142.438H72.5625V147.812H67.1875V142.438Z" fill="#CDCDCD"/>
<path d="M88.6875 142.438H94.0625V147.812H88.6875V142.438Z" fill="#CDCDCD"/>
<path d="M99.4375 142.438H104.812V147.812H99.4375V142.438Z" fill="#CDCDCD"/>
<path d="M67.1875 131.688H72.5625V137.062H67.1875V131.688Z" fill="#CDCDCD"/>
<path d="M88.6875 131.688H94.0625V137.062H88.6875V131.688Z" fill="#CDCDCD"/>
<path d="M99.4375 131.688H104.812V137.062H99.4375V131.688Z" fill="#CDCDCD"/>
<path d="M77.9375 131.688H83.3125V137.062H77.9375V131.688Z" fill="#CDCDCD"/>
<path d="M123.625 72.5625H120.938V69.875C120.938 66.3759 118.683 63.4196 115.562 62.307V59.125C115.562 55.6259 113.308 52.6696 110.188 51.557V10.75C110.188 6.30487 106.57 2.6875 102.125 2.6875C97.6799 2.6875 94.0625 6.30487 94.0625 10.75V51.557C90.9423 52.6696 88.6875 55.6259 88.6875 59.125V61.8125H77.9375V53.75C77.9375 49.3049 74.3201 45.6875 69.875 45.6875H64.5C60.0549 45.6875 56.4375 49.3049 56.4375 53.75V62.307C53.3173 63.4196 51.0625 66.3759 51.0625 69.875V72.5625H48.375C43.9299 72.5625 40.3125 76.1799 40.3125 80.625V91.375C40.3125 95.8201 43.9299 99.4375 48.375 99.4375H51.0625V105.275C51.0625 107.427 51.901 109.454 53.4248 110.975L55.6501 113.2C56.1526 113.703 56.4375 114.393 56.4375 115.1V161.25C56.4375 165.695 60.0549 169.312 64.5 169.312H107.5C111.945 169.312 115.562 165.695 115.562 161.25V115.1C115.562 114.393 115.847 113.7 116.35 113.2L118.575 110.975C120.096 109.454 120.938 107.427 120.938 105.275V99.4375H123.625C128.07 99.4375 131.688 95.8201 131.688 91.375V80.625C131.688 76.1799 128.07 72.5625 123.625 72.5625ZM48.375 94.0625C46.8915 94.0625 45.6875 92.8585 45.6875 91.375V80.625C45.6875 79.1415 46.8915 77.9375 48.375 77.9375H51.0625V94.0625H48.375ZM102.125 8.0625C103.608 8.0625 104.812 9.2665 104.812 10.75V51.0625H99.4375V10.75C99.4375 9.2665 100.642 8.0625 102.125 8.0625ZM94.0625 59.125C94.0625 57.6415 95.2665 56.4375 96.75 56.4375H107.5C108.983 56.4375 110.188 57.6415 110.188 59.125V61.8125H94.0625V59.125ZM64.5 51.0625H69.875C71.3585 51.0625 72.5625 52.2665 72.5625 53.75V61.8125H61.8125V53.75C61.8125 52.2665 63.0165 51.0625 64.5 51.0625ZM115.562 105.275C115.562 105.982 115.278 106.675 114.775 107.175L112.55 109.4C111.026 110.921 110.188 112.948 110.188 115.1V161.25C110.188 162.733 108.983 163.938 107.5 163.938H64.5C63.0165 163.938 61.8125 162.733 61.8125 161.25V115.1C61.8125 112.948 60.9713 110.921 59.4502 109.4L57.2249 107.175C56.7224 106.672 56.4375 105.982 56.4375 105.275V69.875C56.4375 68.3915 57.6415 67.1875 59.125 67.1875H112.875C114.358 67.1875 115.562 68.3915 115.562 69.875V105.275ZM126.312 91.375C126.312 92.8585 125.108 94.0625 123.625 94.0625H120.938V77.9375H123.625C125.108 77.9375 126.312 79.1415 126.312 80.625V91.375Z" fill="#CDCDCD"/>
</svg>
